<svg xmlns="http://www.w3.org/2000/svg" width="67.843" height="63.028" viewBox="0 0 67.843 63.028">
  <g id="delivery_man_box_package_courier" transform="translate(-12.834 -15.27)">
    <path id="Path_3853" data-name="Path 3853" d="M41.122,62.4l1.6,4.131a2.575,2.575,0,0,0,3.959,1.219l1.916-1.119" transform="translate(5.017 8.53)" fill="none" stroke="#002a66" stroke-linecap="round" stroke-width="3"/>
    <path id="Path_3854" data-name="Path 3854" d="M29.386,49.527l7.466,17A2.547,2.547,0,0,0,40.61,67.75l1.824-.977" transform="translate(3.134 8.53)" fill="none" stroke="#002a66" stroke-width="3"/>
    <path id="Path_3855" data-name="Path 3855" d="M46.2,60.066l2.639,6.4a2.286,2.286,0,0,0,3.682,1.149l2.154-1.332" transform="translate(6.12 8.53)" fill="none" stroke="#002a66" stroke-linecap="round" stroke-width="3"/>
    <path id="Path_3856" data-name="Path 3856" d="M51.17,57.9l3.541,7.865s.971,2.539,3.08,1.164" transform="translate(6.822 8.53)" fill="none" stroke="#002a66" stroke-linecap="round" stroke-width="3"/>
    <path id="Path_3857" data-name="Path 3857" d="M53.537,48.525l6.252,1.627s4.145.593,4.947-3.42L50.459,39.094l-9.127-1.3" transform="translate(9.13 4.589)" fill="none" stroke="#002a66" stroke-linejoin="round" stroke-width="3"/>
    <path id="Path_3858" data-name="Path 3858" d="M49.438,17v8.849H40.9V17" transform="translate(5.089)" fill="#ffd31a" stroke="#002a66" stroke-width="3"/>
    <path id="Path_3859" data-name="Path 3859" d="M20.43,44.109V62.947h14.3" transform="translate(0 8.53)" fill="none" stroke="#002a66" stroke-linecap="round" stroke-linejoin="round" stroke-width="3"/>
    <path id="Path_3860" data-name="Path 3860" d="M58.285,51.7l9.264,19.781H79.177V16.77H21.764L43.13,35.947,26.29,53.387,14.953,43.08" transform="translate(0)" fill="none" stroke="#002a66" stroke-linecap="round" stroke-linejoin="round" stroke-width="3"/>
  </g>
</svg>
