<svg xmlns="http://www.w3.org/2000/svg" width="80.935" height="63" viewBox="0 0 80.935 63">
  <g id="ecology_eco_save_planet" transform="translate(-8.438 -15.876)">
    <path id="Path_3861" data-name="Path 3861" d="M35.06,77.213V17.459" transform="translate(4.898 0.016)" fill="none" stroke="#002a66" stroke-linejoin="round" stroke-miterlimit="10" stroke-width="3"/>
    <path id="Path_3862" data-name="Path 3862" d="M49.483,42.515H9.819" transform="translate(0 4.878)" fill="none" stroke="#002a66" stroke-linejoin="round" stroke-miterlimit="10" stroke-width="3"/>
    <path id="Path_3863" data-name="Path 3863" d="M35.148,17.549S6.267,43.224,35.148,77" transform="translate(2.424 0.034)" fill="none" stroke="#002a66" stroke-linejoin="round" stroke-miterlimit="10" stroke-width="3"/>
    <path id="Path_3864" data-name="Path 3864" d="M46.532,54.814a61.518,61.518,0,0,1-9.476,14.958" transform="translate(5.285 7.265)" fill="none" stroke="#002a66" stroke-linejoin="round" stroke-miterlimit="10" stroke-width="3"/>
    <path id="Path_3865" data-name="Path 3865" d="M37.057,17.549A43.358,43.358,0,0,1,48.832,37.84" transform="translate(5.286 0.034)" fill="none" stroke="#002a66" stroke-linejoin="round" stroke-miterlimit="10" stroke-width="3"/>
    <path id="Path_3866" data-name="Path 3866" d="M38.735,53.3a46.829,46.829,0,0,0-22.781,6.42" transform="translate(1.191 6.972)" fill="none" stroke="#002a66" stroke-linecap="round" stroke-linejoin="round" stroke-miterlimit="10" stroke-width="3"/>
    <path id="Path_3867" data-name="Path 3867" d="M35.078,53.3a43.669,43.669,0,0,1,11.85,1.784" transform="translate(4.902 6.972)" fill="none" stroke="#002a66" stroke-linecap="round" stroke-linejoin="round" stroke-miterlimit="10" stroke-width="3"/>
    <path id="Path_3868" data-name="Path 3868" d="M79.711,53.924c-4.154,14.121-15.633,14.916-23.4,10.861S42.96,50.524,50.624,39.762c5.8-8.135,26.932-17.827,26.932-17.827S82.731,43.681,79.711,53.924Z" transform="translate(7.208 0.885)" fill="#ffd31a" stroke="#002a66" stroke-miterlimit="10" stroke-width="3"/>
    <path id="Path_3869" data-name="Path 3869" d="M60.158,50.525l7.7-.507" transform="translate(9.768 6.334)" fill="none" stroke="#002a66" stroke-linecap="round" stroke-linejoin="round" stroke-miterlimit="10" stroke-width="3"/>
    <path id="Path_3870" data-name="Path 3870" d="M62.5,46.3l-4.174-6.8" transform="translate(9.414 4.294)" fill="none" stroke="#002a66" stroke-linecap="round" stroke-linejoin="round" stroke-miterlimit="10" stroke-width="3"/>
    <path id="Path_3871" data-name="Path 3871" d="M76.358,40.124s-7.693,27.4-22.843,34.017l-1.481.688A30,30,0,1,1,62.869,28.051l-.1.081c-9.026,5.384-25.58,11.249-45.656,0" transform="translate(0.019)" fill="none" stroke="#002a66" stroke-linecap="round" stroke-linejoin="round" stroke-miterlimit="10" stroke-width="3"/>
  </g>
</svg>
