<svg xmlns="http://www.w3.org/2000/svg" width="242.886" height="40" viewBox="0 0 242.886 40">
  <g id="Layer_2" data-name="Layer 2" transform="translate(0.001 0)">
    <g id="Layer_1" data-name="Layer 1">
      <path id="Subtraction_1" data-name="Subtraction 1" d="M5178.179-30h-26.358a6.828,6.828,0,0,1-6.821-6.82V-63.179A6.829,6.829,0,0,1,5151.821-70h26.358A6.829,6.829,0,0,1,5185-63.179v26.358A6.828,6.828,0,0,1,5178.179-30Zm-21.506-11.2h0v3.265a1.859,1.859,0,0,0,1.852,1.849h10.549a1.86,1.86,0,0,0,1.853-1.849V-62.007a1.863,1.863,0,0,0-1.853-1.852h-10.549a1.861,1.861,0,0,0-1.853,1.852v7.167a2.168,2.168,0,0,1,.816-.229V-60.3h12.625v20.8h-12.624v-1.472a2.971,2.971,0,0,1-.816-.229Zm8.523-1.345h0a1.674,1.674,0,0,0,.735.835,2.457,2.457,0,0,0,1.125.276h.154c.792,0,1.435-.914,1.435-2.036l.663-.177v-6.9l-.35-2.519a1.3,1.3,0,0,0-1.3-1.188h-10a1.374,1.374,0,0,0-1.237.778,14.377,14.377,0,0,0-.565,1.339,15.649,15.649,0,0,0-.768,3,15.737,15.737,0,0,0-.177,1.919l.812.108.026,1.725h-1.178v2.34l1.284.107,2.455.189,5.836.483,1.046-.278Zm-8.864-.039h0a1.335,1.335,0,0,0,.555.582,2.061,2.061,0,0,0,.947.233h.127a1.1,1.1,0,0,0,.912-.6l-2.542-.213Zm15.347-15.791h0v14.024l3.142-.842.619-12.208-3.761-.973Zm-2.38.017-8.81.442.111,2.843h8.7v-3.286Zm-5.5,21.715h0a1.206,1.206,0,0,1-1.205-1.2,1.21,1.21,0,0,1,1.206-1.208,1.208,1.208,0,0,1,1.207,1.206,1.2,1.2,0,0,1-.353.854A1.213,1.213,0,0,1,5163.8-36.646Zm3.7-5.532c-.332,0-.6-.521-.6-1.162s.27-1.163.6-1.163.6.522.6,1.163h-.016C5168.084-42.689,5167.826-42.178,5167.5-42.178Zm-3.256-2.924H5161.8l.154-1.65,2.289-.176V-45.1Zm-3.744-.5h0l-3.676-.177v-.489l1.5.1,2.177.142v.427Zm-.029-.67h0l-3.647-.177v-.492l1.5.1,2.138.139.01.431Zm5.161-2.6h-.708v-4.45h2.348l.157,3.143-.906.128-.891,1.18Zm-2.685,0h0l-4.624-.155-2.277-.078h-.016a10.714,10.714,0,0,1,.082-1.366,10.7,10.7,0,0,1,.562-2.3,1.021,1.021,0,0,1,.953-.664h.027l.665.013,5.659.1.059,3.454h-.808l-.281.991Zm2.406-12.437h-3.1a.24.24,0,0,1-.239-.241v-.017a.241.241,0,0,1,.069-.172.239.239,0,0,1,.17-.072h3.1a.243.243,0,0,1,.241.245v.017A.241.241,0,0,1,5165.352-61.317Zm-1.55-.911a.385.385,0,0,1-.148-.03.383.383,0,0,1-.237-.355A.385.385,0,0,1,5163.8-63a.383.383,0,0,1,.355.238.378.378,0,0,1-.084.418A.376.376,0,0,1,5163.8-62.228Z" transform="translate(-5145 70)" fill="#fff"/>
      <path id="Path_2164" data-name="Path 2164" d="M290.861,54.21a12.222,12.222,0,0,1,8.5,2.863,9.644,9.644,0,0,1,3.192,7.576,9.762,9.762,0,0,1-3.192,7.6,12.358,12.358,0,0,1-8.5,2.83h-7.306a.831.831,0,0,1-.955-.925V55.135a.831.831,0,0,1,.955-.925Zm-.327,16.882a7.645,7.645,0,0,0,5.249-1.76,5.943,5.943,0,0,0,2-4.683,5.839,5.839,0,0,0-2-4.653,7.517,7.517,0,0,0-5.249-1.79h-3.25V71.092Z" transform="translate(-232.622 -44.623)" fill="#fff"/>
      <path id="Path_2165" data-name="Path 2165" d="M429.1,75.089a.831.831,0,0,1-.955-.925V55.135a.831.831,0,0,1,.955-.925h2.8a.81.81,0,0,1,.925.925V74.157a.81.81,0,0,1-.925.925Z" transform="translate(-352.432 -44.623)" fill="#fff"/>
      <path id="Path_2166" data-name="Path 2166" d="M509.215,58.466a.6.6,0,0,1-.626.835h-3.406a.913.913,0,0,1-.865-.531,6.029,6.029,0,0,0-5.638-3.042,6.37,6.37,0,0,0-4.775,1.878,6.694,6.694,0,0,0-1.79,4.862,6.759,6.759,0,0,0,1.82,4.952,6.427,6.427,0,0,0,4.741,1.848c2.893,0,5.1-1.521,5.726-3.937h-5.129a.81.81,0,0,1-.925-.925V62.583a.81.81,0,0,1,.925-.925h9.463c.6,0,.895.327.895.953-.148,3.431-1.164,6.085-3.1,7.958-1.908,1.885-4.531,2.81-7.9,2.81a11.191,11.191,0,0,1-8.135-3.006,10.578,10.578,0,0,1-3.1-7.9,10.466,10.466,0,0,1,3.072-7.873,11.269,11.269,0,0,1,8.172-3.006C504.085,51.577,507.783,54.315,509.215,58.466Z" transform="translate(-401.195 -42.466)" fill="#fff"/>
      <path id="Path_2167" data-name="Path 2167" d="M646.835,75.089a.832.832,0,0,1-.955-.925V55.135a.832.832,0,0,1,.955-.925h2.8a.81.81,0,0,1,.925.925V74.157a.81.81,0,0,1-.925.925Z" transform="translate(-531.656 -44.623)" fill="#fff"/>
      <path id="Path_2168" data-name="Path 2168" d="M715.954,54.194a.81.81,0,0,1,.925.925v2.122a.808.808,0,0,1-.925.923H709.78V74.14a.83.83,0,0,1-.953.925h-2.8a.809.809,0,0,1-.923-.925V58.16h-6.146a.829.829,0,0,1-.953-.923V55.115a.83.83,0,0,1,.953-.925Z" transform="translate(-574.558 -44.606)" fill="#fff"/>
      <path id="Path_2169" data-name="Path 2169" d="M849.144,73.955c.448.626.177,1.134-.566,1.134h-3.491a1.229,1.229,0,0,1-1.133-.568l-4.775-6.74h-3.91v6.375a.81.81,0,0,1-.925.925h-2.789a.831.831,0,0,1-.955-.925V55.135a.831.831,0,0,1,.955-.925h8.351a9.587,9.587,0,0,1,6.174,1.85,6.062,6.062,0,0,1,2.3,4.952,6.222,6.222,0,0,1-4.3,5.965ZM835.269,58.118v5.756h3.967c2.773,0,4.475-1.075,4.475-2.865,0-1.818-1.581-2.892-4.236-2.892Z" transform="translate(-683.708 -44.623)" fill="#fff"/>
      <path id="Path_2170" data-name="Path 2170" d="M965.953,72.97a9.443,9.443,0,0,1-2.653-7.039V55.144a.831.831,0,0,1,.955-.925h2.829a.81.81,0,0,1,.925.925V66c0,3.311,2.029,5.458,5.1,5.458,3.1,0,5.129-2.147,5.129-5.458V55.135a.809.809,0,0,1,.923-.925h2.829a.831.831,0,0,1,.955.925v10.8a9.455,9.455,0,0,1-2.653,7.039,11.183,11.183,0,0,1-14.341,0Z" transform="translate(-792.94 -44.623)" fill="#fff"/>
      <path id="Path_2171" data-name="Path 2171" d="M1122.408,65.416a.909.909,0,0,1,.9-.656h3.273c.508,0,.835.327.687.835a9.479,9.479,0,0,1-3.7,5.7,11.157,11.157,0,0,1-6.86,2.089,11.3,11.3,0,0,1-8.173-3.006,10.546,10.546,0,0,1-3.1-7.9,10.488,10.488,0,0,1,3.1-7.873,11.27,11.27,0,0,1,8.173-3.006,11.155,11.155,0,0,1,6.86,2.087,9.328,9.328,0,0,1,3.7,5.659.645.645,0,0,1-.687.865h-3.28a.917.917,0,0,1-.895-.656,5.585,5.585,0,0,0-5.659-3.816,6.37,6.37,0,0,0-4.775,1.878,6.7,6.7,0,0,0-1.788,4.862,6.843,6.843,0,0,0,1.788,4.922,6.458,6.458,0,0,0,4.775,1.848A5.688,5.688,0,0,0,1122.408,65.416Z" transform="translate(-909.934 -42.466)" fill="#fff"/>
      <path id="Path_2172" data-name="Path 2172" d="M1261.82,55.135a.83.83,0,0,1,.953-.925h2.8a.809.809,0,0,1,.924.925v9.007l8.77-9.484a1.337,1.337,0,0,1,1.013-.447h3.7c.707,0,.895.447.447,1.015l-8.619,9.424,9.484,9.424c.477.508.269,1.015-.448,1.015h-3.906a1.415,1.415,0,0,1-1.013-.417l-9.426-9.246v8.731a.809.809,0,0,1-.924.925h-2.8a.83.83,0,0,1-.953-.925Z" transform="translate(-1038.667 -44.623)" fill="#fff"/>
    </g>
  </g>
</svg>
