<svg xmlns="http://www.w3.org/2000/svg" width="20" height="20" viewBox="0 0 20 20">
  <path id="_001-facebook" data-name="001-facebook" d="M17.307,0H2.7A2.7,2.7,0,0,0,0,2.7V17.3A2.7,2.7,0,0,0,2.7,20H9.9l.012-7.147H8.058a.438.438,0,0,1-.438-.436l-.009-2.3a.438.438,0,0,1,.438-.44H9.9V7.447a3.637,3.637,0,0,1,3.882-3.99h1.891a.438.438,0,0,1,.438.438V5.838a.438.438,0,0,1-.438.438h-1.16c-1.253,0-1.5.6-1.5,1.469V9.673h2.754a.438.438,0,0,1,.435.49l-.273,2.3a.438.438,0,0,1-.435.387H13.032L13.02,20h4.287A2.7,2.7,0,0,0,20,17.305V2.7A2.7,2.7,0,0,0,17.307,0Z" transform="translate(-0.002)" fill="#002a66"/>
</svg>
