<svg xmlns="http://www.w3.org/2000/svg" width="242.885" height="40" viewBox="0 0 242.885 40">
  <g id="Layer_1" data-name="Layer 1" transform="translate(0)">
    <path id="Path_2478" data-name="Path 2478" d="M6.821,0H33.179A6.821,6.821,0,0,1,40,6.821V33.179A6.821,6.821,0,0,1,33.179,40H6.821A6.821,6.821,0,0,1,0,33.179V6.821A6.821,6.821,0,0,1,6.821,0Z" fill="#002a66"/>
    <path id="Path_2160" data-name="Path 2160" d="M96.4,65.81V69.1H87.7l-.11-2.844Z" transform="translate(-72.1 -54.171)" fill="#ffd31a"/>
    <path id="Path_2161" data-name="Path 2161" d="M154.62,66.684,154,78.892l-3.141.842V65.71Z" transform="translate(-124.18 -54.089)" fill="#ffd31a"/>
    <path id="Path_2162" data-name="Path 2162" d="M58.439,100.911a1.1,1.1,0,0,1-.913.6h-.1a2.058,2.058,0,0,1-.971-.233h0a1.339,1.339,0,0,1-.554-.582Zm10.434-8.174v6.9l-.661.177c0,1.127-.646,2.037-1.436,2.037h-.122a2.455,2.455,0,0,1-1.157-.276h0a1.671,1.671,0,0,1-.736-.837l-1.047.279-5.836-.483-2.455-.189-1.284-.106V97.9h1.178l-.027-1.726-.812-.108a15.419,15.419,0,0,1,.177-1.919,15.6,15.6,0,0,1,.768-3c.177-.49.373-.939.564-1.339a1.369,1.369,0,0,1,1.238-.778h10a1.305,1.305,0,0,1,1.3,1.188ZM55.61,94.173l2.276.078,4.625.156.281-.992H63.6l-.058-3.454-5.659-.1-.665-.012a1.013,1.013,0,0,0-.98.663,10.68,10.68,0,0,0-.562,2.3,10.53,10.53,0,0,0-.081,1.367Zm4.453,3.079-2.177-.141-1.5-.1v.49l3.677.177Zm-.039-.674-2.138-.14-1.5-.1v.492l3.648.177Zm3.783-.221-2.288.177-.154,1.65h2.442Zm2.28-3.132.905-.127-.157-3.143H64.488v4.451h.707Zm1.579,6.72c0-.644-.271-1.164-.6-1.164s-.6.52-.6,1.164.269,1.162.6,1.162.587-.52.587-1.162Z" transform="translate(-44.565 -73.285)" fill="#ffd31a"/>
    <path id="Path_2163" data-name="Path 2163" d="M78.4,34.73H67.853A1.857,1.857,0,0,0,66,36.582v7.168a2.186,2.186,0,0,1,.815-.23V38.283H79.441v20.8H66.817V57.614a2.953,2.953,0,0,1-.815-.23v3.265a1.855,1.855,0,0,0,1.852,1.85H78.4a1.857,1.857,0,0,0,1.853-1.85V36.582A1.859,1.859,0,0,0,78.4,34.73Zm-5.274.863a.384.384,0,1,1-.384.382A.384.384,0,0,1,73.129,35.593Zm1.792,1.438a.241.241,0,0,1-.241.241h-3.1a.241.241,0,0,1-.241-.241v-.018a.242.242,0,0,1,.241-.244h3.1a.242.242,0,0,1,.241.244ZM73.129,61.942a1.2,1.2,0,1,1,.852-.353A1.206,1.206,0,0,1,73.129,61.942Z" transform="translate(-54.328 -28.588)" fill="#ffd31a"/>
    <path id="Path_2164" data-name="Path 2164" d="M290.861,54.21a12.222,12.222,0,0,1,8.5,2.863,9.644,9.644,0,0,1,3.192,7.576,9.762,9.762,0,0,1-3.192,7.6,12.358,12.358,0,0,1-8.5,2.83h-7.306a.831.831,0,0,1-.955-.925V55.135a.831.831,0,0,1,.955-.925Zm-.327,16.882a7.645,7.645,0,0,0,5.249-1.76,5.943,5.943,0,0,0,2-4.683,5.839,5.839,0,0,0-2-4.653,7.517,7.517,0,0,0-5.249-1.79h-3.251V71.092Z" transform="translate(-232.622 -44.623)" fill="#002a66"/>
    <path id="Path_2165" data-name="Path 2165" d="M429.105,75.089a.831.831,0,0,1-.955-.925V55.135a.831.831,0,0,1,.955-.925h2.8a.81.81,0,0,1,.925.925V74.157a.81.81,0,0,1-.925.925Z" transform="translate(-352.432 -44.623)" fill="#002a66"/>
    <path id="Path_2166" data-name="Path 2166" d="M509.215,58.466a.6.6,0,0,1-.626.835h-3.406a.912.912,0,0,1-.865-.531,6.029,6.029,0,0,0-5.638-3.042,6.37,6.37,0,0,0-4.775,1.878,6.694,6.694,0,0,0-1.79,4.862,6.759,6.759,0,0,0,1.82,4.952,6.427,6.427,0,0,0,4.741,1.848c2.893,0,5.1-1.521,5.726-3.937h-5.129a.81.81,0,0,1-.925-.925V62.583a.81.81,0,0,1,.925-.925h9.463c.6,0,.895.327.895.953-.148,3.431-1.164,6.085-3.1,7.958-1.908,1.885-4.531,2.81-7.9,2.81a11.191,11.191,0,0,1-8.135-3.006,10.578,10.578,0,0,1-3.1-7.9,10.466,10.466,0,0,1,3.072-7.873,11.269,11.269,0,0,1,8.172-3.006C504.085,51.577,507.783,54.315,509.215,58.466Z" transform="translate(-401.195 -42.466)" fill="#002a66"/>
    <path id="Path_2167" data-name="Path 2167" d="M646.835,75.089a.831.831,0,0,1-.955-.925V55.135a.831.831,0,0,1,.955-.925h2.8a.81.81,0,0,1,.925.925V74.157a.81.81,0,0,1-.925.925Z" transform="translate(-531.656 -44.623)" fill="#002a66"/>
    <path id="Path_2168" data-name="Path 2168" d="M715.954,54.194a.81.81,0,0,1,.925.925v2.122a.808.808,0,0,1-.925.923H709.78V74.14a.83.83,0,0,1-.953.925h-2.8a.809.809,0,0,1-.923-.925V58.16h-6.146a.829.829,0,0,1-.953-.923V55.115a.83.83,0,0,1,.953-.925Z" transform="translate(-574.559 -44.606)" fill="#002a66"/>
    <path id="Path_2169" data-name="Path 2169" d="M849.145,73.955c.447.626.177,1.134-.566,1.134h-3.491a1.229,1.229,0,0,1-1.134-.568l-4.775-6.74h-3.91v6.375a.81.81,0,0,1-.925.925h-2.789a.831.831,0,0,1-.955-.925V55.135a.831.831,0,0,1,.955-.925h8.351a9.586,9.586,0,0,1,6.174,1.85,6.061,6.061,0,0,1,2.3,4.952,6.222,6.222,0,0,1-4.3,5.965ZM835.269,58.118v5.756h3.967c2.773,0,4.474-1.075,4.474-2.865,0-1.818-1.581-2.892-4.235-2.892Z" transform="translate(-683.708 -44.623)" fill="#002a66"/>
    <path id="Path_2170" data-name="Path 2170" d="M965.953,72.97a9.442,9.442,0,0,1-2.653-7.039V55.144a.831.831,0,0,1,.955-.925h2.83a.81.81,0,0,1,.925.925V66c0,3.311,2.028,5.458,5.1,5.458,3.1,0,5.129-2.147,5.129-5.458V55.135a.809.809,0,0,1,.923-.925h2.83a.831.831,0,0,1,.955.925v10.8a9.454,9.454,0,0,1-2.653,7.039,11.182,11.182,0,0,1-14.341,0Z" transform="translate(-792.94 -44.623)" fill="#002a66"/>
    <path id="Path_2171" data-name="Path 2171" d="M1122.408,65.416a.908.908,0,0,1,.895-.656h3.274c.507,0,.835.327.686.835a9.478,9.478,0,0,1-3.7,5.7,11.157,11.157,0,0,1-6.86,2.089,11.3,11.3,0,0,1-8.172-3.006,10.545,10.545,0,0,1-3.1-7.9,10.487,10.487,0,0,1,3.1-7.873,11.269,11.269,0,0,1,8.172-3.006,11.156,11.156,0,0,1,6.86,2.087,9.326,9.326,0,0,1,3.7,5.659.645.645,0,0,1-.686.865H1123.3a.918.918,0,0,1-.895-.656,5.585,5.585,0,0,0-5.659-3.816,6.37,6.37,0,0,0-4.775,1.878,6.7,6.7,0,0,0-1.788,4.862,6.844,6.844,0,0,0,1.788,4.922,6.458,6.458,0,0,0,4.775,1.848A5.688,5.688,0,0,0,1122.408,65.416Z" transform="translate(-909.934 -42.466)" fill="#002a66"/>
    <path id="Path_2172" data-name="Path 2172" d="M1261.82,55.135a.83.83,0,0,1,.953-.925h2.8a.809.809,0,0,1,.923.925v9.007l8.77-9.484a1.337,1.337,0,0,1,1.013-.447h3.7c.708,0,.895.447.448,1.015l-8.62,9.424,9.484,9.424c.478.508.269,1.015-.448,1.015h-3.906a1.414,1.414,0,0,1-1.013-.417l-9.426-9.246v8.731a.809.809,0,0,1-.923.925h-2.8a.83.83,0,0,1-.953-.925Z" transform="translate(-1038.667 -44.623)" fill="#002a66"/>
  </g>
</svg>
