<svg xmlns="http://www.w3.org/2000/svg" width="20" height="20" viewBox="0 0 20 20">
  <path id="_004-linkedin" data-name="004-linkedin" d="M18.191,0H1.809A1.809,1.809,0,0,0,0,1.809V18.191A1.809,1.809,0,0,0,1.809,20H18.191A1.809,1.809,0,0,0,20,18.191V1.809A1.809,1.809,0,0,0,18.191,0Zm-12,17.269a.526.526,0,0,1-.526.526H3.421a.526.526,0,0,1-.526-.526V7.875a.526.526,0,0,1,.526-.526H5.662a.526.526,0,0,1,.526.526ZM4.542,6.462A2.129,2.129,0,1,1,6.671,4.333,2.129,2.129,0,0,1,4.542,6.462ZM17.9,17.312a.484.484,0,0,1-.484.484h-2.4a.484.484,0,0,1-.484-.484V12.905c0-.657.193-2.881-1.718-2.881-1.482,0-1.783,1.522-1.843,2.2v5.083a.484.484,0,0,1-.484.484H8.157a.484.484,0,0,1-.484-.484V7.832a.484.484,0,0,1,.484-.484h2.326a.484.484,0,0,1,.484.484v.82A3.3,3.3,0,0,1,14.072,7.19c3.851,0,3.829,3.6,3.829,5.574v4.547Z" transform="translate(0)" fill="#002a66"/>
</svg>
