<svg id="_005-instagram" data-name="005-instagram" xmlns="http://www.w3.org/2000/svg" width="20" height="20" viewBox="0 0 20 20">
  <path id="Path_1642" data-name="Path 1642" d="M14.042,0H5.958A5.965,5.965,0,0,0,0,5.958v8.084A5.965,5.965,0,0,0,5.958,20h8.084A5.965,5.965,0,0,0,20,14.042V5.958A5.965,5.965,0,0,0,14.042,0Zm3.946,14.042a3.946,3.946,0,0,1-3.946,3.946H5.958a3.946,3.946,0,0,1-3.946-3.946V5.958A3.946,3.946,0,0,1,5.958,2.012h8.084a3.946,3.946,0,0,1,3.946,3.946v8.084Z" transform="translate(0 0)" fill="#002a66"/>
  <path id="Path_1643" data-name="Path 1643" d="M137.742,133a4.742,4.742,0,1,0,4.742,4.742A4.747,4.747,0,0,0,137.742,133Zm0,7.64a2.9,2.9,0,1,1,2.9-2.9A2.9,2.9,0,0,1,137.742,140.64Z" transform="translate(-127.742 -127.742)" fill="#002a66"/>
  <ellipse id="Ellipse_17" data-name="Ellipse 17" cx="1.864" cy="1.864" rx="1.864" ry="1.864" transform="translate(12.95 3.368)" fill="#002a66"/>
</svg>
