<svg xmlns="http://www.w3.org/2000/svg" width="381.453" height="381.453" viewBox="0 0 381.453 381.453">
  <g id="Group_1223" data-name="Group 1223" transform="translate(-493 -4705)">
    <circle id="Ellipse_35" data-name="Ellipse 35" cx="190.727" cy="190.727" r="190.727" transform="translate(493 4705)" fill="#f6f7f9"/>
    <g id="Group_1193" data-name="Group 1193" transform="translate(11.38 4672.914)">
      <g id="Group_1191" data-name="Group 1191" transform="translate(624.788 95.086)">
        <circle id="Ellipse_48" data-name="Ellipse 48" cx="47.345" cy="47.345" r="47.345" transform="translate(0 12.795)" fill="#ffc000"/>
        <path id="Path_3829" data-name="Path 3829" d="M719.418,95.086c-23.619,21.453-48.154,45.669-69.685,69.215-7.075-8.71-12.964-18.484-18.319-28.345L603.1,143.022c14.167,17.705,29.914,34.529,47.933,48.292C673.885,160.41,696.563,125.99,719.418,95.086Z" transform="translate(-593.064 -95.086)" fill="#002176"/>
      </g>
      <rect id="Rectangle_77" data-name="Rectangle 77" width="317.026" height="35.968" transform="translate(513.62 217.686)" fill="#00b3ff"/>
      <rect id="Rectangle_78" data-name="Rectangle 78" width="268.802" height="15.217" transform="translate(537.732 273.712)" fill="#00b3ff"/>
      <g id="Group_1192" data-name="Group 1192" transform="translate(577.933 313.603)">
        <path id="Path_3830" data-name="Path 3830" d="M562.229,278.608h4.694a1.61,1.61,0,0,1,1.444.882,4.5,4.5,0,0,0,4.333,2.327c2.849,0,4.614-1.644,4.614-3.892s-1.845-3.771-4.693-3.771a6.705,6.705,0,0,0-3.29.843,1.754,1.754,0,0,1-1.644.2l-3.652-1.483a1.443,1.443,0,0,1-.882-1.646l2.086-12.236a1.26,1.26,0,0,1,1.4-1.2h14.4a1.158,1.158,0,0,1,1.283,1.325v3.329a1.157,1.157,0,0,1-1.283,1.323h-10.11l-.763,4.534a14.8,14.8,0,0,1,3.691-.482,11.032,11.032,0,0,1,7.3,2.488,7.973,7.973,0,0,1,2.968,6.419,8.933,8.933,0,0,1-3.25,7.141,12.515,12.515,0,0,1-8.344,2.728,13.143,13.143,0,0,1-7.462-2.047,9.215,9.215,0,0,1-3.932-5.5C560.944,279.09,561.425,278.608,562.229,278.608Z" transform="translate(-561.099 -255.62)" fill="#002176"/>
        <path id="Path_3831" data-name="Path 3831" d="M579.689,275.354a1.171,1.171,0,0,1,1.325-1.325h5.135a1.171,1.171,0,0,1,1.323,1.325v4.452c0,4.454-2.208,7.061-6.579,7.783-.764.121-1.164-.16-1.243-.922l-.121-.763a1.086,1.086,0,0,1,.841-1.325,3.618,3.618,0,0,0,2.648-3.329h-2a1.17,1.17,0,0,1-1.325-1.323Z" transform="translate(-554.575 -250.159)" fill="#002176"/>
        <path id="Path_3832" data-name="Path 3832" d="M611.57,275.948a11.036,11.036,0,0,1-3.411,8.466,14.186,14.186,0,0,1-17.972,0,11.035,11.035,0,0,1-3.411-8.466V269.77a11.029,11.029,0,0,1,3.411-8.465,14.182,14.182,0,0,1,17.972,0,11.029,11.029,0,0,1,3.411,8.465Zm-7.022-6.178c0-3.329-2.166-5.577-5.375-5.577a5.2,5.2,0,0,0-5.417,5.577v6.178a5.2,5.2,0,0,0,5.417,5.577c3.209,0,5.375-2.246,5.375-5.577Z" transform="translate(-551.996 -255.809)" fill="#002176"/>
        <path id="Path_3833" data-name="Path 3833" d="M632.207,275.948a11.039,11.039,0,0,1-3.409,8.466,14.188,14.188,0,0,1-17.973,0,11.039,11.039,0,0,1-3.409-8.466V269.77a11.033,11.033,0,0,1,3.409-8.465,14.184,14.184,0,0,1,17.973,0,11.032,11.032,0,0,1,3.409,8.465Zm-7.021-6.178c0-3.329-2.166-5.577-5.375-5.577a5.2,5.2,0,0,0-5.417,5.577v6.178a5.2,5.2,0,0,0,5.417,5.577c3.209,0,5.375-2.246,5.375-5.577Z" transform="translate(-544.678 -255.809)" fill="#002176"/>
        <path id="Path_3834" data-name="Path 3834" d="M652.847,275.948a11.035,11.035,0,0,1-3.411,8.466,14.186,14.186,0,0,1-17.972,0,11.036,11.036,0,0,1-3.411-8.466V269.77a11.029,11.029,0,0,1,3.411-8.465,14.182,14.182,0,0,1,17.972,0,11.028,11.028,0,0,1,3.411,8.465Zm-7.022-6.178c0-3.329-2.165-5.577-5.373-5.577a5.2,5.2,0,0,0-5.417,5.577v6.178a5.2,5.2,0,0,0,5.417,5.577c3.209,0,5.373-2.246,5.373-5.577Z" transform="translate(-537.361 -255.809)" fill="#002176"/>
        <path id="Path_3835" data-name="Path 3835" d="M679.872,258.628a1.171,1.171,0,0,1,1.325,1.325V263.6a1.171,1.171,0,0,1-1.325,1.323h-7.7v20.46a1.171,1.171,0,0,1-1.325,1.323h-4.974a1.158,1.158,0,0,1-1.284-1.323v-20.46h-7.7a1.171,1.171,0,0,1-1.325-1.323v-3.651a1.171,1.171,0,0,1,1.325-1.325Z" transform="translate(-527.608 -255.62)" fill="#002176"/>
        <path id="Path_3836" data-name="Path 3836" d="M678.047,287.5a1.158,1.158,0,0,1-1.284-1.323V257.691a1.146,1.146,0,0,1,1.284-1.284h4.694a1.159,1.159,0,0,1,1.325,1.284v19.98l6.62-9.069a1.658,1.658,0,0,1,1.444-.761h5.215c.963,0,1.323.683.722,1.444l-6.1,8.386,6.941,8.383c.642.763.28,1.444-.722,1.444H692.37a1.715,1.715,0,0,1-1.445-.722l-6.859-8.144v7.542a1.17,1.17,0,0,1-1.325,1.323Z" transform="translate(-520.091 -256.407)" fill="#002176"/>
        <path id="Path_3837" data-name="Path 3837" d="M694.441,275.323A1.169,1.169,0,0,1,695.764,274H700.9a1.169,1.169,0,0,1,1.323,1.323v4.614a1.169,1.169,0,0,1-1.323,1.323h-5.135a1.17,1.17,0,0,1-1.323-1.323Z" transform="translate(-513.824 -250.169)" fill="#002176"/>
      </g>
    </g>
  </g>
</svg>
