<svg xmlns="http://www.w3.org/2000/svg" width="381.453" height="381.453" viewBox="0 0 381.453 381.453">
  <g id="Group_1222" data-name="Group 1222" transform="translate(-959 -4110)">
    <circle id="Ellipse_32" data-name="Ellipse 32" cx="190.727" cy="190.727" r="190.727" transform="translate(959 4110)" fill="#f6f7f9"/>
    <g id="Group_1190" data-name="Group 1190" transform="translate(562.986 3462.153)">
      <path id="Path_3788" data-name="Path 3788" d="M431.013,803.777l7.48,4.3L701.642,656.144l-7.48-4.3Z" transform="translate(0)" fill="#0045e0"/>
      <g id="Group_1173" data-name="Group 1173" transform="translate(431.013 656.144)">
        <path id="Path_3789" data-name="Path 3789" d="M436.135,806.718V1023.76L699.284,871.83V654.789Z" transform="translate(-428.655 -654.789)" fill="#0045e0"/>
        <g id="Group_1172" data-name="Group 1172" transform="translate(16.296 15.269)">
          <path id="Path_3790" data-name="Path 3790" d="M442.171,806.993v196.684l245.517-141.75V665.243Z" transform="translate(-442.171 -665.243)" fill="#00b3ff"/>
        </g>
        <path id="Path_3791" data-name="Path 3791" d="M431.013,755.87V972.912l7.48,4.3V760.166Z" transform="translate(-431.013 -608.237)" fill="#0028b5"/>
      </g>
      <path id="Path_3792" data-name="Path 3792" d="M449,807.3V980.937L674.56,850.712V677.079Z" transform="translate(8.285 11.62)" fill="#fff"/>
      <g id="Group_1174" data-name="Group 1174" transform="translate(615.896 746.156)">
        <path id="Path_3793" data-name="Path 3793" d="M557.6,738.3l13.516,10.128,10.809-32.01-13.377,24.557Z" transform="translate(-557.599 -716.419)" fill="#0028b5"/>
        <path id="Path_3794" data-name="Path 3794" d="M557.6,765.092l13.516,10.128,10.809-32.01-13.377,24.557Z" transform="translate(-557.599 -704.08)" fill="#0028b5"/>
        <path id="Path_3795" data-name="Path 3795" d="M557.6,791.29l13.516,10.128,10.809-32.01-13.377,24.557Z" transform="translate(-557.599 -692.015)" fill="#0028b5"/>
      </g>
      <g id="Group_1175" data-name="Group 1175" transform="translate(476.087 767.982)">
        <path id="Path_3796" data-name="Path 3796" d="M461.874,810.1h0A2.749,2.749,0,0,0,466,812.48l123.311-71.194a8.279,8.279,0,0,0,4.141-7.171h0a2.75,2.75,0,0,0-4.125-2.381L466.015,802.928A8.276,8.276,0,0,0,461.874,810.1Z" transform="translate(-461.874 -731.362)" fill="#00b3ff"/>
        <path id="Path_3797" data-name="Path 3797" d="M461.874,839.868h0A2.749,2.749,0,0,0,466,842.248l123.311-71.194a8.279,8.279,0,0,0,4.141-7.171h0a2.75,2.75,0,0,0-4.125-2.381L466.015,832.7A8.276,8.276,0,0,0,461.874,839.868Z" transform="translate(-461.874 -717.653)" fill="#00b3ff"/>
        <path id="Path_3798" data-name="Path 3798" d="M461.874,825.079h0A2.749,2.749,0,0,0,466,827.459l123.311-71.194a8.279,8.279,0,0,0,4.141-7.171h0a2.75,2.75,0,0,0-4.125-2.381L466.015,817.906A8.28,8.28,0,0,0,461.874,825.079Z" transform="translate(-461.874 -724.464)" fill="#00b3ff"/>
        <path id="Path_3799" data-name="Path 3799" d="M461.874,869.636h0A2.749,2.749,0,0,0,466,872.016l123.311-71.194a8.279,8.279,0,0,0,4.141-7.171h0a2.75,2.75,0,0,0-4.125-2.381L466.015,862.464A8.276,8.276,0,0,0,461.874,869.636Z" transform="translate(-461.874 -703.943)" fill="#00b3ff"/>
        <path id="Path_3800" data-name="Path 3800" d="M461.874,854.572h0A2.748,2.748,0,0,0,466,856.953L589.308,785.76a8.283,8.283,0,0,0,4.141-7.171h0a2.749,2.749,0,0,0-4.125-2.381L466.015,847.4A8.278,8.278,0,0,0,461.874,854.572Z" transform="translate(-461.874 -710.88)" fill="#00b3ff"/>
      </g>
      <g id="Group_1176" data-name="Group 1176" transform="translate(649.444 730.93)">
        <path id="Path_3801" data-name="Path 3801" d="M593.755,709.274l-10.213,33.6,14.7-36.88Z" transform="translate(-579.198 -705.994)" fill="#ed0a36"/>
        <path id="Path_3802" data-name="Path 3802" d="M580.568,711.927l4.688-.733,14.62,22.74" transform="translate(-580.568 -703.598)" fill="#ed0a36"/>
      </g>
      <g id="Group_1177" data-name="Group 1177" transform="translate(649.444 772.464)">
        <path id="Path_3803" data-name="Path 3803" d="M593.755,737.712l-10.213,33.6,14.7-36.88Z" transform="translate(-579.198 -734.431)" fill="#ed0a36"/>
        <path id="Path_3804" data-name="Path 3804" d="M580.568,740.365l4.688-.733,14.62,22.74" transform="translate(-580.568 -732.036)" fill="#ed0a36"/>
      </g>
      <g id="Group_1178" data-name="Group 1178" transform="translate(649.444 809.486)">
        <path id="Path_3805" data-name="Path 3805" d="M593.755,763.06l-10.213,33.6,14.7-36.88Z" transform="translate(-579.198 -759.779)" fill="#ed0a36"/>
        <path id="Path_3806" data-name="Path 3806" d="M580.568,765.713l4.688-.733,14.62,22.74" transform="translate(-580.568 -757.384)" fill="#ed0a36"/>
      </g>
      <g id="Group_1189" data-name="Group 1189" transform="translate(662.162 751.924)">
        <g id="Group_1179" data-name="Group 1179">
          <path id="Path_3807" data-name="Path 3807" d="M660.423,886.927a1.89,1.89,0,0,1-1.785-1.271L602.249,722.875a1.888,1.888,0,1,1,3.568-1.237l56.389,162.78a1.888,1.888,0,0,1-1.164,2.4A1.923,1.923,0,0,1,660.423,886.927Z" transform="translate(-583.35 -720.367)" fill="#0045e0"/>
          <path id="Path_3808" data-name="Path 3808" d="M595.456,747.379a1.889,1.889,0,0,1-.945-3.526L613.307,733a1.889,1.889,0,0,1,1.889,3.272l-18.8,10.849A1.872,1.872,0,0,1,595.456,747.379Z" transform="translate(-587.301 -714.665)" fill="#0045e0"/>
          <path id="Path_3809" data-name="Path 3809" d="M599.746,759.765a1.889,1.889,0,0,1-.945-3.526l18.8-10.849a1.889,1.889,0,0,1,1.888,3.272l-18.8,10.849A1.873,1.873,0,0,1,599.746,759.765Z" transform="translate(-585.325 -708.961)" fill="#0045e0"/>
          <path id="Path_3810" data-name="Path 3810" d="M604.035,772.146a1.889,1.889,0,0,1-.945-3.526l18.8-10.849a1.889,1.889,0,1,1,1.888,3.272l-18.8,10.85A1.886,1.886,0,0,1,604.035,772.146Z" transform="translate(-583.35 -703.259)" fill="#0045e0"/>
          <path id="Path_3811" data-name="Path 3811" d="M608.325,784.533a1.888,1.888,0,0,1-.945-3.524l18.8-10.856a1.889,1.889,0,0,1,1.889,3.273l-18.8,10.855A1.888,1.888,0,0,1,608.325,784.533Z" transform="translate(-581.374 -697.556)" fill="#0045e0"/>
          <path id="Path_3812" data-name="Path 3812" d="M612.615,796.914a1.889,1.889,0,0,1-.945-3.526l18.794-10.849a1.889,1.889,0,1,1,1.889,3.272l-18.794,10.85A1.886,1.886,0,0,1,612.615,796.914Z" transform="translate(-579.398 -691.852)" fill="#0045e0"/>
          <path id="Path_3813" data-name="Path 3813" d="M616.9,809.3a1.889,1.889,0,0,1-.945-3.526l18.8-10.855a1.889,1.889,0,1,1,1.888,3.272l-18.8,10.855A1.874,1.874,0,0,1,616.9,809.3Z" transform="translate(-577.423 -686.149)" fill="#0045e0"/>
          <path id="Path_3814" data-name="Path 3814" d="M621.194,821.681a1.889,1.889,0,0,1-.945-3.526l18.794-10.849a1.889,1.889,0,1,1,1.888,3.272l-18.794,10.849A1.888,1.888,0,0,1,621.194,821.681Z" transform="translate(-575.447 -680.445)" fill="#0045e0"/>
          <path id="Path_3815" data-name="Path 3815" d="M625.483,834.067a1.89,1.89,0,0,1-.945-3.526l18.8-10.849a1.889,1.889,0,1,1,1.888,3.272l-18.8,10.849A1.888,1.888,0,0,1,625.483,834.067Z" transform="translate(-573.472 -674.741)" fill="#0045e0"/>
          <path id="Path_3816" data-name="Path 3816" d="M647.553,894.239a1.887,1.887,0,0,1-1.783-1.269L589.381,730.555a1.886,1.886,0,1,1,3.564-1.239l56.39,162.416a1.887,1.887,0,0,1-1.164,2.4A1.866,1.866,0,0,1,647.553,894.239Z" transform="translate(-589.276 -716.83)" fill="#0028b5"/>
        </g>
        <g id="Group_1188" data-name="Group 1188" transform="translate(3.811 15.513)">
          <g id="Group_1181" data-name="Group 1181" transform="translate(19.205)">
            <g id="Group_1180" data-name="Group 1180">
              <path id="Path_3817" data-name="Path 3817" d="M605.252,734.531c.113,1.455.963,4.466,1.794,4.583s1.516-.432,1.973-.074a4.81,4.81,0,0,1,.923,1.376,13.611,13.611,0,0,0,2.956-1.6c-.567-1.522-.835-1.843-.812-2.382s.5-3.066-.624-4.519S605.037,731.756,605.252,734.531Z" transform="translate(-604.937 -730.838)" fill="#ffc6c2"/>
              <path id="Path_3818" data-name="Path 3818" d="M612.172,732.428a6.539,6.539,0,0,1,.294,2.6c-.015.275-.044.523-.075.726a7.57,7.57,0,0,0-.1,1.446l-3.155.9-.272-.412c.082-.022.143-.2.107-.561a2.991,2.991,0,0,0-.223-.958.909.909,0,0,0-.574-.52c-.4-.109-.5.115-.543.428-.034.215-.039.469-.094.683-.12.007-.368-.444-.548-.8-.112-.226-.2-.411-.2-.411a5.747,5.747,0,0,1-1.49-.431,1.905,1.905,0,0,1,.142-2.147,4.4,4.4,0,0,0,.654-.635,1.449,1.449,0,0,1,.167-.891c.31-.4,3-.5,3.837-.45A2.611,2.611,0,0,1,612.172,732.428Z" transform="translate(-605.034 -730.989)" fill="#002176"/>
            </g>
          </g>
          <g id="Group_1183" data-name="Group 1183" transform="translate(28.345 25.319)">
            <g id="Group_1182" data-name="Group 1182">
              <path id="Path_3819" data-name="Path 3819" d="M620.33,754.888a117.406,117.406,0,0,1-2.115,13.151s7.177,8.227,8.281,9.48c.664,1.174.3,2.064-.443,2.467a1.8,1.8,0,0,1-.589.209,2.456,2.456,0,0,1-1.344-.137c-3.39-1.729-11.164-7.722-12.412-9.865-.838-1.442-.267-9.261.435-14.633a25.223,25.223,0,0,1,.964-5.087c.774-1.354,5.711-3.869,7.006-.374A13.379,13.379,0,0,1,620.33,754.888Z" transform="translate(-611.292 -748.324)" fill="#0028b5"/>
              <path id="Path_3820" data-name="Path 3820" d="M613.554,769.6c1.277,2.21,10.779,9.121,11.832,9.884a1.8,1.8,0,0,1-.589.209c-1.94-1.412-10.422-7.645-11.686-9.837-1.418-2.457,1.691-19.707,1.823-20.442l.5.095C614.542,754.45,612.454,767.7,613.554,769.6Z" transform="translate(-610.625 -747.822)" fill="#0045e0"/>
            </g>
            <path id="Path_3821" data-name="Path 3821" d="M621.967,767.8a2.566,2.566,0,0,0-2.37,3.168c.46,1.814,3.13,6.869,3.91,6.415s1.719-3.248,1.107-4.586-1.228-1.158-1.29-1.821S623.534,767.928,621.967,767.8Z" transform="translate(-607.504 -739.354)" fill="#002176"/>
          </g>
          <g id="Group_1185" data-name="Group 1185" transform="translate(24.925 26.028)">
            <path id="Path_3822" data-name="Path 3822" d="M609.169,775.444a27.63,27.63,0,0,1,5.073-1.506c.643.045,3.571.546,3.692,1.437s.479,2.435.058,2.644a3.2,3.2,0,0,1-1.9.33c-.818-.121-1.948-1.161-2.629-1.119a11.591,11.591,0,0,1-3.394-.348C608.76,776.451,608.811,775.893,609.169,775.444Z" transform="translate(-608.951 -737.237)" fill="#002176"/>
            <g id="Group_1184" data-name="Group 1184" transform="translate(0.146)">
              <path id="Path_3823" data-name="Path 3823" d="M616.5,753.843c0,.444,0,.894,0,1.339,0,.083,0,.177,0,.282-.06,3.18-.859,15.315-.859,15.315s1.947,10.928,2.248,16.165a1.394,1.394,0,0,1-1.348.961,2.663,2.663,0,0,1-.64-.113,2.816,2.816,0,0,1-.592-.261,3.894,3.894,0,0,1-1.376-1.453s-4.383-13.89-4.681-16.183c-.535-4.11.191-9.678.05-14.277,0-.053,0-.105,0-.158-.143-6.926,5.018-7.028,6.133-6.418a.527.527,0,0,1,.092.057c.028.021.055.04.083.064a.477.477,0,0,1,.06.053C616.393,749.928,616.494,751.831,616.5,753.843Z" transform="translate(-609.051 -748.81)" fill="#002176"/>
              <path id="Path_3824" data-name="Path 3824" d="M615.258,786.8a2.656,2.656,0,0,1-.6-.261c-1.073-4.344-3.736-15.14-4.132-17.212-.5-2.626,1.437-17.718,1.522-18.358l.508.066c-.022.155-2.018,15.65-1.529,18.2C611.44,771.353,614.253,782.747,615.258,786.8Z" transform="translate(-608.407 -747.816)" fill="#0045e0"/>
            </g>
          </g>
          <g id="Group_1186" data-name="Group 1186" transform="translate(20.262 7.302)">
            <path id="Path_3825" data-name="Path 3825" d="M610.471,737.218s-3.613,2.246-4.414,4.335c-.59,1.542-.19,1.7.191,3.933a125.109,125.109,0,0,0,4.608,14.3c.714.638,5.131.979,7.954-.307s4.32-2.8,4.848-4.208c-1.294-4.038-4.593-16.858-6.292-18.39C616.438,736.048,613.416,735.658,610.471,737.218Z" transform="translate(-605.758 -735.913)" fill="#ffc000"/>
            <path id="Path_3826" data-name="Path 3826" d="M607.267,739.292a5.567,5.567,0,0,1,2.445-2.69,4.82,4.82,0,0,1,3.959-.332C612.357,736.441,610.149,737.472,607.267,739.292Z" transform="translate(-605.063 -735.988)" fill="#ffc000"/>
          </g>
          <g id="Group_1187" data-name="Group 1187" transform="translate(0 9.722)">
            <path id="Path_3827" data-name="Path 3827" d="M597.112,738.274a.332.332,0,0,0-.114-.188,2.169,2.169,0,0,0-1.664-.419c-.974.124-1.815,1.176-2.943.478a.343.343,0,0,0-.5.381c.224,1,.682,1.78,1.544,1.966a13.1,13.1,0,0,0,3.732-.348.338.338,0,0,0,.264-.407Z" transform="translate(-591.885 -737.645)" fill="#ffc6c2"/>
            <path id="Path_3828" data-name="Path 3828" d="M595.1,740.464s6.46,4.758,8.885,4.967c3.264.171,10.7-.381,11.429-2.866.892-3.034-1.2-4.623-2.137-4.424s-9.451,2.464-9.451,2.464-7.891-2.7-8.046-2.641A1.839,1.839,0,0,0,595.1,740.464Z" transform="translate(-590.531 -737.498)" fill="#ffd31a"/>
          </g>
        </g>
      </g>
    </g>
  </g>
</svg>
