<svg xmlns="http://www.w3.org/2000/svg" xmlns:xlink="http://www.w3.org/1999/xlink" width="381.453" height="381.453" viewBox="0 0 381.453 381.453">
  <defs>
    <clipPath id="clip-path">
      <rect id="Rectangle_62" data-name="Rectangle 62" width="167.762" height="69.398" rx="11.697" fill="#d9eeff"/>
    </clipPath>
    <clipPath id="clip-path-2">
      <path id="Path_3759" data-name="Path 3759" d="M523.264,528.506h-110.9a9,9,0,0,1-6.747-3.044l-8.177-9.265a8.209,8.209,0,0,1,8.208-8.209H530.437a8.208,8.208,0,0,1,8.208,8.209l-8.8,9.443A9,9,0,0,1,523.264,528.506Z" transform="translate(-397.435 -507.988)" fill="#0045e0"/>
    </clipPath>
    <clipPath id="clip-path-3">
      <rect id="Rectangle_70" data-name="Rectangle 70" width="95.347" height="39.46" rx="5.771" fill="#0045e0"/>
    </clipPath>
  </defs>
  <g id="Group_1227" data-name="Group 1227" transform="translate(-493 -7053)">
    <circle id="Ellipse_39" data-name="Ellipse 39" cx="190.727" cy="190.727" r="190.727" transform="translate(493 7053)" fill="#f6f7f9"/>
    <g id="Group_1171" data-name="Group 1171" transform="translate(-90.366 6458.473)">
      <path id="Path_2840" data-name="Path 2840" d="M751.548,699.89c0,.658,7.271,1.19,16.244,1.19s16.242-.532,16.242-1.19-7.272-1.187-16.242-1.187S751.548,699.233,751.548,699.89Z" transform="translate(-34.364 -26.617)" fill="#fff"/>
      <path id="Path_2841" data-name="Path 2841" d="M782.615,689.41c0,.656,13.777,1.19,30.771,1.19s30.771-.533,30.771-1.19-13.778-1.189-30.771-1.189S782.615,688.753,782.615,689.41Z" transform="translate(-45.821 -22.752)" fill="#fff"/>
      <path id="Path_2842" data-name="Path 2842" d="M840.157,649.225H724.317s3.474-9.456,11.049-5.674c0,0-1.578-7.565,7.261-8.106s12.939,6.89,12.939,6.89-.629-15.808,14.837-15.808S787.127,644.9,787.127,644.9s.317-9.458,7.894-7.027,5.677,7.3,5.677,7.3-2.522-4.594,9.158-3.783,16.1,5.945,16.1,5.945,8.206-8.648,14.2.809" transform="translate(-24.322)" fill="#fff"/>
      <path id="Path_2843" data-name="Path 2843" d="M727.294,680.532H658.366s8.843-6.342,14.681-3.169,7.677-6.678,15.857-6.51,8.01,6.843,8.01,6.843,3.673-8.852,11.852-6.846,2.841,8.181,2.841,8.181S723.787,669.517,727.294,680.532Z" transform="translate(0 -16.237)" fill="#fff"/>
      <path id="Path_2850" data-name="Path 2850" d="M840.157,649.225H724.317s3.474-9.456,11.049-5.674c0,0-1.578-7.565,7.261-8.106s12.939,6.89,12.939,6.89-.629-15.808,14.837-15.808S787.127,644.9,787.127,644.9s.317-9.458,7.894-7.027,5.677,7.3,5.677,7.3-2.522-4.594,9.158-3.783,16.1,5.945,16.1,5.945,8.206-8.648,14.2.809" transform="translate(115.022 36.513)" fill="#fff"/>
    </g>
    <g id="Group_1170" data-name="Group 1170" transform="translate(202.083 6706.507)">
      <g id="Group_1141" data-name="Group 1141" transform="translate(316.309 549.284)">
        <g id="Group_1138" data-name="Group 1138" transform="translate(158.199 20.391)">
          <path id="Path_3736" data-name="Path 3736" d="M576.433,584.937c-2.329-5.982-4.067-12.33-5.968-19.036-1.28-4.52-3.344-9.576-7.82-11-4.354-1.386-9.041,1.487-11.719,5.188s-4.027,8.189-6.317,12.142c-4.152,7.165-11.5,10.166-17.581,3.868-8.681-9-12.588-21.261-18.092-32.235-4-7.967-7.34-17.294-12.374-24.637-7.678-11.2-18.2-20.745-32.2-20.745-8.873,1.344-16.691,9.2-21.983,19.027s-8.379,21.5-11.01,33.157c-4.784,21.192-8.055,41.428-11.553,63.083l176.391-.61c-.7.009-5.032-5.78-5.862-6.582A58.2,58.2,0,0,1,576.433,584.937Z" transform="translate(-419.81 -498.482)" fill="#b0b9c7"/>
          <g id="Group_1136" data-name="Group 1136" transform="translate(98.21 54.419)">
            <path id="Path_3737" data-name="Path 3737" d="M522.571,583.766c-.347,6.867-7.818,18.871-14.684,18.524s-10.528-12.91-10.181-19.776,7.658-41.226,14.525-40.879S522.916,576.9,522.571,583.766Z" transform="translate(-497.683 -541.632)" fill="#6aa5fe"/>
            <line id="Line_124" data-name="Line 124" x1="3.462" y2="55.641" transform="translate(10.755 4.466)" fill="none" stroke="#1a55b5" stroke-linecap="round" stroke-linejoin="round" stroke-width="0.437"/>
            <path id="Path_3738" data-name="Path 3738" d="M505.743,578.642a47.65,47.65,0,0,0-3.473,10.793c-.366,1.9-.6,3.966.266,5.7a6.818,6.818,0,0,0,5.119,3.345c5.1.839,10.208-2.286,13.2-6.506s4.287-9.375,5.476-14.409a57.368,57.368,0,0,1,3.621-11.678c.757-1.583,5.186-7.694,3.091-9.28-2.867-2.251-11.162.2-16.478,6A61.923,61.923,0,0,0,505.743,578.642Z" transform="translate(-496.571 -537.937)" fill="#5f6d81"/>
            <path id="Path_3739" data-name="Path 3739" d="M506.472,597.456s6.162-23.987,21.037-37.745" transform="translate(-495.388 -536.91)" fill="none" stroke="#fff" stroke-linecap="round" stroke-linejoin="round" stroke-width="0.437"/>
          </g>
          <g id="Group_1137" data-name="Group 1137" transform="translate(123.382 86.219)">
            <path id="Path_3740" data-name="Path 3740" d="M536.242,570.093a6.029,6.029,0,0,1-2.414,2.1c-1.106.623-2.284,1.17-3.423,1.7a39.322,39.322,0,0,0-4.371,2.26,14.735,14.735,0,0,0-2.681,2.135,33.953,33.953,0,0,1,4.25-7.226c2.172-2.8,4.4-4.212,6.63-4.212h.155a2.5,2.5,0,0,1,1.594.508A2.271,2.271,0,0,1,536.242,570.093Z" transform="translate(-516.152 -566.847)" fill="#5f6d81"/>
            <path id="Path_3741" data-name="Path 3741" d="M538.685,582.616a6.031,6.031,0,0,1-3.078.86c-1.266.091-2.566.081-3.823.073a39.244,39.244,0,0,0-4.917.173,14.739,14.739,0,0,0-3.337.783,33.914,33.914,0,0,1,6.933-4.713c3.16-1.6,5.781-1.925,7.8-.971.047.021.093.044.139.068a2.5,2.5,0,0,1,1.225,1.141A2.273,2.273,0,0,1,538.685,582.616Z" transform="translate(-516.106 -563.859)" fill="#5f6d81"/>
            <path id="Path_3742" data-name="Path 3742" d="M532.633,589.048a4.136,4.136,0,0,1-1.935-1.015c-.672-.549-1.314-1.163-1.935-1.754a26.69,26.69,0,0,0-2.527-2.22,10.044,10.044,0,0,0-2.025-1.174,23.129,23.129,0,0,1,5.656.906c2.32.686,3.777,1.752,4.332,3.17.013.033.025.066.037.1a1.714,1.714,0,0,1,.074,1.141A1.554,1.554,0,0,1,532.633,589.048Z" transform="translate(-515.928 -562.659)" fill="#5f6d81"/>
            <path id="Path_3743" data-name="Path 3743" d="M517.643,595.369s.071-14.679,17.994-27.14" transform="translate(-517.643 -566.486)" fill="none" stroke="#fff" stroke-linecap="round" stroke-linejoin="round" stroke-width="0.393"/>
            <path id="Path_3744" data-name="Path 3744" d="M517.643,592.191A22.581,22.581,0,0,1,538.066,580.4" transform="translate(-517.643 -563.308)" fill="none" stroke="#fff" stroke-linecap="round" stroke-linejoin="round" stroke-width="0.393"/>
            <path id="Path_3745" data-name="Path 3745" d="M524.081,583s2.889-.211,8.923,4.341" transform="translate(-515.962 -562.629)" fill="none" stroke="#fff" stroke-linecap="round" stroke-linejoin="round" stroke-width="0.393"/>
          </g>
        </g>
        <g id="Group_1140" data-name="Group 1140" transform="translate(0 38.909)">
          <path id="Path_3746" data-name="Path 3746" d="M416.206,606.885c-4.143-15.661-8.31-31.328-13.18-46.5-2.747-8.552-5.777-17.071-9.987-23.913s-9.788-11.89-15.386-11.855c-8.628,1.669-14.193,10.188-17.843,19.622-2.394,6.186-3.554,13.681-5.248,20.219-2.332,9.006-3.555,18.8-8.036,26.684-3.136,5.516-7.958,4.109-11.208-.848-1.793-2.734-3.058-5.988-5.066-8.485s-5.174-4.123-7.723-2.55c-2.621,1.618-3.4,5.712-3.757,9.3-.523,5.328-.981,10.365-1.839,15.194q-.282,1.578-.624,3.125Z" transform="translate(-288.641 -510.173)" fill="#b0b9c7"/>
          <path id="Path_3747" data-name="Path 3747" d="M381.411,590.034c-3.055-3.523-6.922-6.564-8.141-11.011-.892-3.249-.189-6.688.159-10.039s.225-7.057-1.943-9.635c-1.786-2.126-4.607-3.049-7.322-3.632s-5.546-.953-7.955-2.334c-3.91-2.242-3.132-6.057-5.231-9.4-2.356-3.754-7.837-8.543-12.536-6.049-4.976,2.639-4.187,10.656-.878,14.2,2.2,2.347,5.007,4.6,5.33,7.8.487,4.814-5.031,9.15-3.513,13.745,1.121,3.394,5.4,4.561,7.513,7.444,2.09,2.854,1.669,6.85.438,10.165s-3.169,6.38-3.934,9.833c-1.567,7.065,3.976,11.946,10.292,13.52,5.8,1.447,18.321.765,18.321.765a23.953,23.953,0,0,0,11.876-9.774,12.432,12.432,0,0,0,.674-10.792A18,18,0,0,0,381.411,590.034Z" transform="translate(-307.228 -518.455)" fill="#ffc000"/>
          <path id="Path_3748" data-name="Path 3748" d="M341.016,542.825s21.371,33.011,23.7,69.665" transform="translate(-304.239 -515.727)" fill="none" stroke="#002a66" stroke-linecap="round" stroke-linejoin="round" stroke-width="0.504"/>
          <g id="Group_1139" data-name="Group 1139" transform="translate(14.332 71.169)">
            <path id="Path_3749" data-name="Path 3749" d="M328.4,572.886a2.236,2.236,0,0,1,1.423-.453h.137c1.989,0,3.979,1.264,5.918,3.76a30.351,30.351,0,0,1,3.793,6.448,13.15,13.15,0,0,0-2.394-1.905,35.074,35.074,0,0,0-3.9-2.017c-1.015-.473-2.068-.963-3.054-1.518a5.39,5.39,0,0,1-2.154-1.87A2.028,2.028,0,0,1,328.4,572.886Z" transform="translate(-324.992 -572.432)" fill="#b0b9c7"/>
            <path id="Path_3750" data-name="Path 3750" d="M326.058,582.639a2.233,2.233,0,0,1,1.093-1.018c.042-.022.082-.042.124-.061,1.8-.852,4.138-.561,6.957.866a30.255,30.255,0,0,1,6.188,4.205,13.252,13.252,0,0,0-2.979-.7,35.3,35.3,0,0,0-4.388-.155c-1.121.007-2.28.016-3.412-.064a5.383,5.383,0,0,1-2.746-.768A2.028,2.028,0,0,1,326.058,582.639Z" transform="translate(-325.937 -568.206)" fill="#b0b9c7"/>
            <path id="Path_3751" data-name="Path 3751" d="M329.116,589.3a1.528,1.528,0,0,1,.065-1.018c.01-.03.022-.06.033-.089.5-1.265,1.8-2.216,3.866-2.83a20.752,20.752,0,0,1,5.049-.808,9.082,9.082,0,0,0-1.809,1.049,24.194,24.194,0,0,0-2.255,1.98c-.554.53-1.127,1.078-1.727,1.568a3.675,3.675,0,0,1-1.727.905A1.385,1.385,0,0,1,329.116,589.3Z" transform="translate(-324.414 -566.508)" fill="#b0b9c7"/>
            <path id="Path_3752" data-name="Path 3752" d="M345.388,597.7s-.062-13.1-16.06-24.221" transform="translate(-324.28 -571.922)" fill="none" stroke="#002a66" stroke-linecap="round" stroke-linejoin="round" stroke-width="0.393"/>
            <path id="Path_3753" data-name="Path 3753" d="M346.1,593.2a20.152,20.152,0,0,0-18.227-10.524" transform="translate(-324.992 -567.426)" fill="none" stroke="#002a66" stroke-linecap="round" stroke-linejoin="round" stroke-width="0.393"/>
            <path id="Path_3754" data-name="Path 3754" d="M337.862,584.646s-2.578-.189-7.962,3.873" transform="translate(-324.001 -566.466)" fill="none" stroke="#002a66" stroke-linecap="round" stroke-linejoin="round" stroke-width="0.393"/>
          </g>
        </g>
      </g>
      <g id="Group_1166" data-name="Group 1166" transform="translate(388.498 409.552)">
        <rect id="Rectangle_46" data-name="Rectangle 46" width="191.901" height="229.315" transform="translate(22.621)" fill="#115fea"/>
        <g id="Group_1143" data-name="Group 1143" transform="translate(206.677 92.932)">
          <path id="Rectangle_47" data-name="Rectangle 47" d="M.19,0H12.18A6.721,6.721,0,0,1,18.9,6.721v32.54a6.721,6.721,0,0,1-6.721,6.721H.19a.19.19,0,0,1-.19-.19V.19A.19.19,0,0,1,.19,0Z" transform="translate(11.566 7.215)" fill="#002176"/>
          <g id="Group_1142" data-name="Group 1142">
            <path id="Path_3755" data-name="Path 3755" d="M510.569,527.736h-6.917v-1.453h6.917c3.961,0,7.307-5.57,7.307-12.163V480.658c0-6.593-3.346-12.163-7.307-12.163h-6.917v-1.453h6.917c4.83,0,8.76,6.109,8.76,13.616V514.12C519.329,521.628,515.4,527.736,510.569,527.736Z" transform="translate(-503.652 -467.042)" fill="#002176"/>
          </g>
        </g>
        <g id="Group_1145" data-name="Group 1145" transform="translate(0 92.932)">
          <path id="Rectangle_48" data-name="Rectangle 48" d="M.189,0H12.18A6.721,6.721,0,0,1,18.9,6.721v32.54a6.721,6.721,0,0,1-6.721,6.721H.189A.189.189,0,0,1,0,45.792V.189A.189.189,0,0,1,.189,0Z" transform="translate(18.901 53.197) rotate(-180)" fill="#002176"/>
          <g id="Group_1144" data-name="Group 1144" transform="translate(14.789)">
            <path id="Path_3756" data-name="Path 3756" d="M383.5,527.736h6.917v-1.453H383.5c-3.961,0-7.307-5.57-7.307-12.163V480.658c0-6.593,3.346-12.163,7.307-12.163h6.917v-1.453H383.5c-4.83,0-8.76,6.109-8.76,13.616V514.12C374.741,521.628,378.671,527.736,383.5,527.736Z" transform="translate(-374.741 -467.042)" fill="#002176"/>
          </g>
        </g>
        <rect id="Rectangle_49" data-name="Rectangle 49" width="111.037" height="11.466" transform="translate(63.053 246.212)" fill="#0028b5"/>
        <rect id="Rectangle_50" data-name="Rectangle 50" width="29.57" height="50.087" rx="6.258" transform="translate(40.725 225.694)" fill="#0028b5"/>
        <path id="Rectangle_51" data-name="Rectangle 51" d="M6.258,0H23.311A6.259,6.259,0,0,1,29.57,6.259v37.57a6.259,6.259,0,0,1-6.259,6.259H6.258A6.258,6.258,0,0,1,0,43.829V6.258A6.258,6.258,0,0,1,6.258,0Z" transform="translate(169.866 225.694)" fill="#0028b5"/>
        <rect id="Rectangle_52" data-name="Rectangle 52" width="29.57" height="50.087" rx="6.258" transform="translate(102.278 207.591)" fill="#002a66"/>
        <rect id="Rectangle_53" data-name="Rectangle 53" width="180.435" height="206.987" transform="translate(28.053 32.587)" fill="#ffc000"/>
        <rect id="Rectangle_54" data-name="Rectangle 54" width="180.435" height="30.173" transform="translate(28.053 32.587)" fill="#ffc000"/>
        <g id="Group_1153" data-name="Group 1153" transform="translate(34.087 71.812)">
          <rect id="Rectangle_55" data-name="Rectangle 55" width="167.762" height="69.398" rx="11.697" fill="#d9eeff"/>
          <g id="Group_1152" data-name="Group 1152" clip-path="url(#clip-path)">
            <g id="Group_1146" data-name="Group 1146" transform="translate(74.361 -8.039)">
              <rect id="Rectangle_56" data-name="Rectangle 56" width="177.384" height="18.408" transform="translate(0 149.65) rotate(-57.528)" fill="#fcfdff"/>
            </g>
            <g id="Group_1147" data-name="Group 1147" transform="translate(-24.181 -83.528)">
              <rect id="Rectangle_57" data-name="Rectangle 57" width="177.384" height="18.407" transform="matrix(0.537, -0.844, 0.844, 0.537, 0, 149.651)" fill="#fcfdff"/>
            </g>
            <g id="Group_1148" data-name="Group 1148" transform="translate(-9.402 -66.915)">
              <rect id="Rectangle_58" data-name="Rectangle 58" width="177.384" height="8.181" transform="matrix(0.537, -0.844, 0.844, 0.537, 0, 149.657)" fill="#fcfdff"/>
            </g>
            <g id="Group_1149" data-name="Group 1149" transform="translate(34.927 -39.325)">
              <rect id="Rectangle_59" data-name="Rectangle 59" width="177.383" height="8.181" transform="translate(0 149.658) rotate(-57.533)" fill="#fcfdff"/>
            </g>
            <g id="Group_1150" data-name="Group 1150" transform="translate(24.681 -62.425)">
              <rect id="Rectangle_60" data-name="Rectangle 60" width="177.383" height="1.023" transform="translate(0 149.644) rotate(-57.524)" fill="#fcfdff"/>
            </g>
            <g id="Group_1151" data-name="Group 1151" transform="translate(54.031 -41.879)">
              <rect id="Rectangle_61" data-name="Rectangle 61" width="177.384" height="1.023" transform="translate(0 149.631) rotate(-57.516)" fill="#fcfdff"/>
            </g>
          </g>
        </g>
        <g id="Group_1155" data-name="Group 1155" transform="translate(48.57 153.882)">
          <path id="Path_3757" data-name="Path 3757" d="M523.264,528.506h-110.9a9,9,0,0,1-6.747-3.044l-8.177-9.265a8.209,8.209,0,0,1,8.208-8.209H530.437a8.208,8.208,0,0,1,8.208,8.209l-8.8,9.443A9,9,0,0,1,523.264,528.506Z" transform="translate(-397.435 -507.988)" fill="#0045e0"/>
          <g id="Group_1154" data-name="Group 1154" clip-path="url(#clip-path-2)">
            <path id="Path_3758" data-name="Path 3758" d="M420.017,532.381l-15.69-17.5H527.434l-16.9,18.707Z" transform="translate(-394.068 -504.621)" fill="#002176"/>
          </g>
        </g>
        <g id="Group_1164" data-name="Group 1164" transform="translate(70.295 186.47)">
          <rect id="Rectangle_63" data-name="Rectangle 63" width="95.347" height="39.46" rx="5.771" fill="#0045e0"/>
          <g id="Group_1163" data-name="Group 1163" clip-path="url(#clip-path-3)">
            <g id="Group_1162" data-name="Group 1162" transform="translate(-14.655 1.361)">
              <g id="Group_1156" data-name="Group 1156">
                <rect id="Rectangle_64" data-name="Rectangle 64" width="124.48" height="2.721" fill="#002176"/>
              </g>
              <g id="Group_1157" data-name="Group 1157" transform="translate(0 13.607)">
                <rect id="Rectangle_65" data-name="Rectangle 65" width="124.48" height="2.721" fill="#002176"/>
              </g>
              <g id="Group_1158" data-name="Group 1158" transform="translate(0 6.803)">
                <rect id="Rectangle_66" data-name="Rectangle 66" width="124.48" height="2.721" fill="#002176"/>
              </g>
              <g id="Group_1159" data-name="Group 1159" transform="translate(0 20.41)">
                <rect id="Rectangle_67" data-name="Rectangle 67" width="124.48" height="2.721" fill="#002176"/>
              </g>
              <g id="Group_1160" data-name="Group 1160" transform="translate(0 27.213)">
                <rect id="Rectangle_68" data-name="Rectangle 68" width="124.48" height="2.721" fill="#002176"/>
              </g>
              <g id="Group_1161" data-name="Group 1161" transform="translate(0 34.017)">
                <rect id="Rectangle_69" data-name="Rectangle 69" width="124.48" height="2.721" fill="#002176"/>
              </g>
            </g>
          </g>
        </g>
        <line id="Line_125" data-name="Line 125" x2="132.762" transform="translate(51.588 141.21)" fill="none" stroke="#002176" stroke-miterlimit="10" stroke-width="1.622"/>
        <line id="Line_126" data-name="Line 126" x2="31.38" y2="34.397" transform="translate(69.993 106.511)" fill="none" stroke="#002176" stroke-miterlimit="10" stroke-width="2.027"/>
        <line id="Line_127" data-name="Line 127" x2="31.38" y2="34.397" transform="translate(114.046 106.511)" fill="none" stroke="#002176" stroke-miterlimit="10" stroke-width="2.027"/>
        <rect id="Rectangle_71" data-name="Rectangle 71" width="191.297" height="17.5" rx="4.663" transform="translate(22.621 237.764)" fill="#ffc000"/>
        <rect id="Rectangle_72" data-name="Rectangle 72" width="114.658" height="25.345" transform="translate(63.053 7.242)" fill="#ffc000"/>
        <rect id="Rectangle_73" data-name="Rectangle 73" width="84.485" height="8.448" transform="translate(71.502 241.988)" fill="#002176"/>
        <g id="Group_1165" data-name="Group 1165" transform="translate(34.087 191.901)">
          <rect id="Rectangle_74" data-name="Rectangle 74" width="26.552" height="14.483" rx="3.024" transform="translate(0 26.552)" fill="#0028b5"/>
          <rect id="Rectangle_75" data-name="Rectangle 75" width="26.552" height="14.483" rx="3.024" transform="translate(142.417 26.552)" fill="#0028b5"/>
          <path id="Path_3760" data-name="Path 3760" d="M387.706,554.093V535.3a1.866,1.866,0,0,1,3.142-1.267l20.427,18.8a1.754,1.754,0,0,1-1.289,3.031H389.559A1.809,1.809,0,0,1,387.706,554.093Z" transform="translate(-387.705 -533.529)" fill="#b0e7ff"/>
          <path id="Path_3761" data-name="Path 3761" d="M508.331,554.093V535.3a1.866,1.866,0,0,0-3.142-1.267l-20.429,18.8a1.754,1.754,0,0,0,1.289,3.031h20.427A1.811,1.811,0,0,0,508.331,554.093Z" transform="translate(-340.568 -533.529)" fill="#b0e7ff"/>
          <path id="Path_3762" data-name="Path 3762" d="M394.56,555.808h-3.622a1.21,1.21,0,0,1-1.206-1.207h0a1.21,1.21,0,0,1,1.206-1.207h3.622a1.211,1.211,0,0,1,1.207,1.207h0A1.211,1.211,0,0,1,394.56,555.808Z" transform="translate(-386.715 -523.824)" fill="#fcfdff"/>
          <path id="Path_3763" data-name="Path 3763" d="M491.857,555.808h-3.62a1.211,1.211,0,0,1-1.207-1.207h0a1.211,1.211,0,0,1,1.207-1.207h3.62a1.211,1.211,0,0,1,1.207,1.207h0A1.211,1.211,0,0,1,491.857,555.808Z" transform="translate(-339.182 -523.824)" fill="#fcfdff"/>
          <path id="Path_3764" data-name="Path 3764" d="M393.749,547.7h-3.62a1.21,1.21,0,0,1-1.207-1.206h0a1.211,1.211,0,0,1,1.207-1.207h3.62a1.211,1.211,0,0,1,1.207,1.207h0A1.21,1.21,0,0,1,393.749,547.7Z" transform="translate(-387.111 -527.785)" fill="#fcfdff"/>
          <path id="Path_3765" data-name="Path 3765" d="M491.857,548.51h-3.62a1.211,1.211,0,0,1-1.207-1.207h0a1.209,1.209,0,0,1,1.207-1.206h3.62a1.21,1.21,0,0,1,1.207,1.206h0A1.211,1.211,0,0,1,491.857,548.51Z" transform="translate(-339.182 -527.389)" fill="#fcfdff"/>
        </g>
      </g>
      <g id="Group_1167" data-name="Group 1167" transform="translate(334.785 494.699)">
        <path id="Path_3766" data-name="Path 3766" d="M354.686,477.185l-2.065,8.483s10.8,7.208,16.7-4.242l-6.624-8.3Z" transform="translate(-317.045 -456.285)" fill="#ffc6c2"/>
        <path id="Path_3767" data-name="Path 3767" d="M353.977,524.162l-8.468,44.785,36.919,35.969,5.533-6.94-22.438-32.414,6.156-46.674Z" transform="translate(-320.519 -433.928)" fill="#0028b5"/>
        <path id="Path_3768" data-name="Path 3768" d="M363.684,521.917l20.053-7.029-18.2,95.317-9.941-1.42Z" transform="translate(-315.592 -435.881)" fill="#0028b5"/>
        <path id="Path_3769" data-name="Path 3769" d="M365.919,523.042l-5.341,40.49-4.948-3.917Z" transform="translate(-315.575 -431.898)" fill="#002176"/>
        <path id="Path_3770" data-name="Path 3770" d="M356.928,563.644l8.426,20.279,1.856-9.717Z" transform="translate(-314.94 -412.063)" fill="#002176"/>
        <path id="Path_3771" data-name="Path 3771" d="M359.882,479.365s8.57,11.32,16.131-1.567l16.28,6.381,6.246,17.245-9.474,6.124L386,497.972l-1.692,15.97,9.425,22.492-36.122,7.8-9.6-43.925-4.488,2.066-5.441-10.3,12.687-9.873Z" transform="translate(-324.148 -454.002)" fill="#ffc000"/>
        <path id="Path_3772" data-name="Path 3772" d="M348.094,507.3l-5.44-10.3-4.143,3.925,2.331-16.212,7.779-11.512-7.345-5.485-4.317,3.662-1.254-2.89-1.9,1.227,3.6,5.72L328.721,502.3l2,11.44Z" transform="translate(-328.721 -458.927)" fill="#ffc6c2"/>
        <path id="Path_3773" data-name="Path 3773" d="M353.49,480.349l7.058,1.537,2.528-7.758-.8-1-8.015,4.059Z" transform="translate(-316.62 -456.285)" fill="#ffa69b"/>
        <path id="Path_3774" data-name="Path 3774" d="M351.105,473.315l4.546,9.1,6.182.48,3.648-5.418-4.956-12.526-11.08,4.32Z" transform="translate(-318.596 -460.276)" fill="#ffc6c2"/>
        <path id="Path_3775" data-name="Path 3775" d="M353.154,472a1.406,1.406,0,1,1-1.742-.963A1.407,1.407,0,0,1,353.154,472Z" transform="translate(-318.132 -457.332)" fill="#ffc6c2"/>
        <circle id="Ellipse_47" data-name="Ellipse 47" cx="1.406" cy="1.406" r="1.406" transform="translate(42.598 9.231)" fill="#ffc6c2"/>
        <path id="Rectangle_76" data-name="Rectangle 76" d="M0,0H5.5a0,0,0,0,1,0,0V.9A1.848,1.848,0,0,1,3.653,2.75H1.848A1.848,1.848,0,0,1,0,.9V0A0,0,0,0,1,0,0Z" transform="translate(37.84 16.936) rotate(-23.981)" fill="#fff"/>
        <path id="Path_3776" data-name="Path 3776" d="M354.4,468.267l-.269,5.781,3.165-.857Z" transform="translate(-316.305 -458.658)" fill="#ffa69b"/>
        <path id="Path_3777" data-name="Path 3777" d="M363.819,472.449s1.495-1.423-.911-7.138a2.4,2.4,0,0,0-2.1-1.082s-2.656-4.571-9.933-1.143c0,0-9.909,4.482,1.752,12.376,0,0,2.6.85,4.3-4.564a4.266,4.266,0,0,1,3.433-2.961c.939-.131,1.828.03,2.181.923Z" transform="translate(-319.815 -461.812)" fill="#002176"/>
        <path id="Path_3778" data-name="Path 3778" d="M372.822,491.351l-7.774,16.8,8.722,23.838,6.785-2.177-9.425-22.492Z" transform="translate(-310.974 -447.381)" fill="#ffb300"/>
        <path id="Path_3779" data-name="Path 3779" d="M346.224,496.649l1.761-11.356-6.249,13.423Z" transform="translate(-322.363 -450.34)" fill="#ffb300"/>
        <path id="Path_3780" data-name="Path 3780" d="M338.432,479.134l-4.776,15.878,2.445.334Z" transform="translate(-326.31 -453.349)" fill="#ffa69b"/>
        <path id="Path_3781" data-name="Path 3781" d="M373.353,530.858l6.785-18.709-4.664-12.355,9.474-6.124,6.566,17.386-9.262,17.973-5.765,7.827-6.9.536-3.685-3.6Z" transform="translate(-310.557 -446.248)" fill="#ffc6c2"/>
        <path id="Path_3782" data-name="Path 3782" d="M371.553,577.312l1.372,10.1-2.918,7.6,3.788,3.315,10.588-21.4-9.061-4.343Z" transform="translate(-308.551 -407.695)" fill="#0045e0"/>
        <path id="Path_3783" data-name="Path 3783" d="M357.766,578.129l-1.022,3.4-2.174,5.159,2.174,8.564h5.377l3.771-6.421-2.686-6.263.231-3.634Z" transform="translate(-316.092 -404.986)" fill="#0045e0"/>
        <path id="Path_3784" data-name="Path 3784" d="M373.625,574.014l2.367,10.176-5.077,10.92-.907-.794,2.652-9.558-1.106-8.145Z" transform="translate(-308.551 -406.997)" fill="#002176"/>
        <path id="Path_3785" data-name="Path 3785" d="M358.048,578.238l-1.734,7.649.867,5.065h2.9l1.379-5.209-.957-7.154Z" transform="translate(-315.24 -404.933)" fill="#002176"/>
      </g>
      <g id="Group_1169" data-name="Group 1169" transform="translate(311.917 388.493)">
        <g id="Group_1168" data-name="Group 1168" transform="translate(0 17.578)">
          <path id="Path_3786" data-name="Path 3786" d="M370.735,480.458h-29.85A22.178,22.178,0,0,1,318.733,458.3V428.456A22.178,22.178,0,0,1,340.885,406.3h29.85a22.179,22.179,0,0,1,22.154,22.154V458.3A22.179,22.179,0,0,1,370.735,480.458Zm-29.85-58.73a6.736,6.736,0,0,0-6.727,6.728V458.3a6.735,6.735,0,0,0,6.727,6.727h29.85a6.734,6.734,0,0,0,6.727-6.727V428.456a6.735,6.735,0,0,0-6.727-6.728Z" transform="translate(-318.733 -406.302)" fill="#ffc000"/>
        </g>
        <path id="Path_3787" data-name="Path 3787" d="M406.864,394.493c-17.1,15.534-34.87,33.069-50.463,50.122a133.3,133.3,0,0,1-13.264-20.527l-20.508,5.118c10.259,12.821,21.663,25,34.711,34.97C373.891,441.8,390.313,416.872,406.864,394.493Z" transform="translate(-316.83 -394.493)" fill="#002176"/>
      </g>
    </g>
  </g>
</svg>
