<svg xmlns="http://www.w3.org/2000/svg" xmlns:xlink="http://www.w3.org/1999/xlink" width="398.324" height="381.453" viewBox="0 0 398.324 381.453">
  <defs>
    <clipPath id="clip-path">
      <path id="Path_2793" data-name="Path 2793" d="M386.856,195.8H363.6a11.553,11.553,0,0,0-11.552,11.554v16.286h34.811Z" transform="translate(-352.045 -195.797)" fill="#d9eeff"/>
    </clipPath>
  </defs>
  <g id="Group_1225" data-name="Group 1225" transform="translate(-481 -5879)">
    <circle id="Ellipse_37" data-name="Ellipse 37" cx="190.727" cy="190.727" r="190.727" transform="translate(492.547 5879)" fill="#f6f7f9"/>
    <g id="Group_899" data-name="Group 899" transform="translate(-177.366 5315.473)">
      <path id="Path_2840" data-name="Path 2840" d="M751.548,700.3c0,.883,9.758,1.6,21.8,1.6s21.8-.714,21.8-1.6-9.759-1.593-21.8-1.593S751.548,699.415,751.548,700.3Z" transform="translate(-14.248 -11.036)" fill="#fff"/>
      <path id="Path_2841" data-name="Path 2841" d="M782.615,689.816c0,.881,18.489,1.6,41.295,1.6s41.294-.716,41.294-1.6-18.49-1.6-41.294-1.6S782.615,688.935,782.615,689.816Z" transform="translate(-18.999 -9.434)" fill="#fff"/>
      <path id="Path_2842" data-name="Path 2842" d="M879.774,656.988H724.317s4.661-12.69,14.827-7.615c0,0-2.118-10.152,9.744-10.878s17.364,9.247,17.364,9.247-.844-21.215,19.912-21.215,22.445,24.66,22.445,24.66.425-12.693,10.594-9.43,7.619,9.792,7.619,9.792-3.384-6.165,12.29-5.077,21.6,7.979,21.6,7.979,11.013-11.605,19.062,1.086" transform="translate(-10.084)" fill="#fff"/>
      <path id="Path_2843" data-name="Path 2843" d="M750.867,683.945h-92.5s11.867-8.512,19.7-4.253,10.3-8.961,21.28-8.736,10.749,9.183,10.749,9.183,4.929-11.879,15.9-9.188,3.813,10.979,3.813,10.979S746.161,669.162,750.867,683.945Z" transform="translate(0 -6.732)" fill="#fff"/>
      <path id="Path_2850" data-name="Path 2850" d="M879.774,656.988H724.317s4.661-12.69,14.827-7.615c0,0-2.118-10.152,9.744-10.878s17.364,9.247,17.364,9.247-.844-21.215,19.912-21.215,22.445,24.66,22.445,24.66.425-12.693,10.594-9.43,7.619,9.792,7.619,9.792-3.384-6.165,12.29-5.077,21.6,7.979,21.6,7.979,11.013-11.605,19.062,1.086" transform="translate(176.916 49)" fill="#fff"/>
    </g>
    <g id="Group_903" data-name="Group 903" transform="translate(-50 -121)">
      <g id="Group_902" data-name="Group 902" transform="translate(141.515 5958.032)">
        <path id="Path_2844" data-name="Path 2844" d="M542.866,294.322s15.1-31.685,35.369-31.685,25.053,15.843,40.9,15.843a54.737,54.737,0,0,1,38.685,15.842Z" fill="#b0b9c7"/>
        <path id="Path_2845" data-name="Path 2845" d="M607.3,294.322S595.878,274.8,583.351,274.8s-21.369,0-31.317-4.052-31.316,11.421-34.263,23.579Z" fill="#b0b9c7"/>
        <g id="Group_900" data-name="Group 900">
          <path id="Path_2846" data-name="Path 2846" d="M740.634,217.55c-5.8-13.816-5.143-26.024-1.554-35.721,6.8-18.386-23.315-33.912-37.407.9-13.735,33.934-5.151,57.883,19.342,59.075V228.724L702.922,208.8l.818-.743,7.512,8.272v-7.9h1.106v9.117l8.657,9.533v-10.8l-7.507-17.486,1.015-.436,1.7,3.955,2.1-6.4,1.051.345-2.489,7.59,4.134,9.629V188.812h1.106v15.693l8.928-14.055.933.594-9.861,15.522v25.827l10.8-14.255.88.667-11.677,15.418v7.619c.278.006.547.025.829.025C738.7,241.867,746.437,231.366,740.634,217.55Z" fill="#b0b9c7"/>
          <path id="Path_2847" data-name="Path 2847" d="M721.015,294.322h1.106v-52.48c-.371-.008-.742-.015-1.106-.033Z" fill="#b0b9c7"/>
        </g>
        <g id="Group_901" data-name="Group 901">
          <path id="Path_2848" data-name="Path 2848" d="M502.757,233.121c-4.626-11.013-4.1-20.745-1.239-28.476,5.425-14.657-18.586-27.033-29.82.722-10.949,27.051-4.106,46.143,15.419,47.093V242.029l-14.423-15.881.652-.592,5.989,6.594v-6.3h.881v7.268l6.9,7.6V232.11l-5.984-13.94.809-.348,1.354,3.154,1.672-5.1.838.275-1.984,6.051,3.3,7.676V210.212H488v12.51l7.117-11.2.744.473L488,224.365v20.589l8.607-11.364.7.532L488,246.412v6.074c.221.005.436.02.661.02C501.215,252.506,507.383,244.135,502.757,233.121Z" fill="#b0b9c7"/>
          <path id="Path_2849" data-name="Path 2849" d="M487.117,294.322H488V252.486c-.3-.006-.592-.012-.882-.026Z" fill="#b0b9c7"/>
        </g>
      </g>
    </g>
    <g id="Group_898" data-name="Group 898" transform="translate(361.416 5852.167)">
      <g id="Group_889" data-name="Group 889" transform="translate(130.217 192.641)">
        <rect id="Rectangle_19" data-name="Rectangle 19" width="42.99" height="9.128" transform="translate(287.036 93.271)" fill="#0048c8"/>
        <rect id="Rectangle_20" data-name="Rectangle 20" width="17.044" height="41.403" transform="translate(310.012 57.956)" fill="#0048c8"/>
        <rect id="Rectangle_21" data-name="Rectangle 21" width="61.163" height="27.308" transform="translate(8.439 82.295)" fill="#2343ba"/>
        <rect id="Rectangle_22" data-name="Rectangle 22" width="61.163" height="27.308" transform="translate(121.024 79.617)" fill="#2343ba"/>
        <rect id="Rectangle_23" data-name="Rectangle 23" width="82.048" height="27.308" transform="translate(209.639 79.617)" fill="#0048c8"/>
        <rect id="Rectangle_24" data-name="Rectangle 24" width="61.163" height="27.308" transform="translate(58.624 86.394)" fill="#2343ba"/>
        <path id="Path_2786" data-name="Path 2786" d="M377.132,197.363h-41.1v-22.57Z" transform="translate(-18.183 -174.794)" fill="#ffc000"/>
        <path id="Path_2787" data-name="Path 2787" d="M341.154,255.142s25.385-7.549,38.267,0C379.421,255.142,359.359,194.71,341.154,255.142Z" transform="translate(-15.013 -141.665)" fill="#002176"/>
        <path id="Path_2788" data-name="Path 2788" d="M392.246,185.558h-56.21v97.526H346.45c-.044-.487-.07-.981-.07-1.48a16.29,16.29,0,1,1,32.581,0c0,.5-.026.993-.07,1.48h24.792V197.261Z" transform="translate(-18.183 -168.127)" fill="#ffc000"/>
        <g id="Group_870" data-name="Group 870" transform="translate(330.026 99.015)">
          <path id="Path_2789" data-name="Path 2789" d="M358.015,235.939A14.462,14.462,0,0,0,343.553,250.4c0,.442.024.881.063,1.313a14.459,14.459,0,0,0,28.8,0c.039-.432.063-.871.063-1.313A14.462,14.462,0,0,0,358.015,235.939Z" transform="translate(-343.553 -235.939)" fill="#002176"/>
          <path id="Path_2790" data-name="Path 2790" d="M355.661,239.741a8.306,8.306,0,0,0-8.306,8.306c0,.254.015.505.036.755a8.3,8.3,0,0,0,16.54,0c.023-.249.036-.5.036-.755A8.3,8.3,0,0,0,355.661,239.741Z" transform="translate(-341.198 -233.584)" fill="#2343ba"/>
          <path id="Path_2791" data-name="Path 2791" d="M354.524,241.576a5.334,5.334,0,0,0-5.334,5.334c0,.164.008.324.023.484a5.333,5.333,0,0,0,10.623,0c.015-.16.023-.321.023-.484A5.333,5.333,0,0,0,354.524,241.576Z" transform="translate(-340.062 -232.448)" fill="#c1e4ff"/>
        </g>
        <g id="Group_879" data-name="Group 879" transform="translate(343.777 34.012)">
          <g id="Group_878" data-name="Group 878" transform="translate(0)">
            <path id="Path_2792" data-name="Path 2792" d="M386.856,195.8H363.6a11.553,11.553,0,0,0-11.552,11.554v16.286h34.811Z" transform="translate(-352.045 -195.797)" fill="#d9eeff"/>
            <g id="Group_877" data-name="Group 877" clip-path="url(#clip-path)">
              <g id="Group_871" data-name="Group 871" transform="translate(14.971 -3.661)">
                <rect id="Rectangle_25" data-name="Rectangle 25" width="73.593" height="7.637" transform="translate(0 62.087) rotate(-57.528)" fill="#fff"/>
              </g>
              <g id="Group_872" data-name="Group 872" transform="translate(-25.912 -34.979)">
                <rect id="Rectangle_26" data-name="Rectangle 26" width="73.593" height="7.637" transform="translate(0 62.087) rotate(-57.528)" fill="#fff"/>
              </g>
              <g id="Group_873" data-name="Group 873" transform="translate(-19.78 -28.087)">
                <rect id="Rectangle_27" data-name="Rectangle 27" width="73.593" height="3.394" transform="translate(0 62.09) rotate(-57.533)" fill="#fff"/>
              </g>
              <g id="Group_874" data-name="Group 874" transform="translate(-1.389 -16.64)">
                <rect id="Rectangle_28" data-name="Rectangle 28" width="73.593" height="3.394" transform="translate(0 62.09) rotate(-57.533)" fill="#fff"/>
              </g>
              <g id="Group_875" data-name="Group 875" transform="translate(-5.64 -26.224)">
                <rect id="Rectangle_29" data-name="Rectangle 29" width="73.593" height="0.424" transform="translate(0 62.083) rotate(-57.523)" fill="#fff"/>
              </g>
              <g id="Group_876" data-name="Group 876" transform="translate(6.541 -17.703)">
                <rect id="Rectangle_30" data-name="Rectangle 30" width="73.593" height="0.424" transform="translate(0 62.084) rotate(-57.523)" fill="#fff"/>
              </g>
            </g>
          </g>
          <path id="Path_2794" data-name="Path 2794" d="M352.045,212.989v21.429a9.99,9.99,0,0,0,9.99,9.991h24.821v-31.42Z" transform="translate(-352.045 -185.149)" fill="#ffd31a"/>
          <path id="Path_2795" data-name="Path 2795" d="M361.738,218.122h-4.026a2.586,2.586,0,0,1-2.584-2.586h9.2A2.586,2.586,0,0,1,361.738,218.122Z" transform="translate(-350.136 -183.572)" fill="#002176"/>
        </g>
        <rect id="Rectangle_31" data-name="Rectangle 31" width="5.635" height="13.639" rx="1.74" transform="translate(382.057 103.546)" fill="#f7941d"/>
        <g id="Group_881" data-name="Group 881">
          <rect id="Rectangle_32" data-name="Rectangle 32" width="303.211" height="92.539" fill="#115fea"/>
          <g id="Group_880" data-name="Group 880" transform="translate(50.627 29.643)">
            <g id="Layer_1-2" data-name="Layer 1-2">
              <path id="Path_2796" data-name="Path 2796" d="M182.415,205.4l.235-.824h.672l-.049-2.873-4.706-.086-.554-.011a.843.843,0,0,0-.8.552,8.81,8.81,0,0,0-.468,1.911,8.588,8.588,0,0,0-.07,1.135l1.893.063Z" transform="translate(-167.507 -187.833)" fill="#fff"/>
              <path id="Path_2797" data-name="Path 2797" d="M177.076,204.939v.407l3.034.15-.009-.362-1.778-.116Z" transform="translate(-167.26 -185.766)" fill="#fff"/>
              <path id="Path_2798" data-name="Path 2798" d="M182.249,207.158c0,.534.223.967.5.967s.5-.432.5-.967-.225-.967-.5-.967S182.249,206.623,182.249,207.158Z" transform="translate(-164.056 -184.991)" fill="#fff"/>
              <path id="Path_2799" data-name="Path 2799" d="M182.56,204.377l.753-.106-.131-2.613h-1.938v3.7h.594Z" transform="translate(-164.678 -187.798)" fill="#fff"/>
              <path id="Path_2800" data-name="Path 2800" d="M180.134,205.481l-1.812-.118-1.247-.081v.407l3.059.151Z" transform="translate(-167.26 -185.553)" fill="#fff"/>
              <path id="Path_2801" data-name="Path 2801" d="M179.632,206.469h2.031v-1.523l-1.9.151Z" transform="translate(-165.677 -185.762)" fill="#fff"/>
              <path id="Path_2802" data-name="Path 2802" d="M180.79,197.34a.32.32,0,1,0-.319-.321A.32.32,0,0,0,180.79,197.34Z" transform="translate(-165.157 -190.869)" fill="#fff"/>
              <path id="Path_2803" data-name="Path 2803" d="M181.052,208.99a1,1,0,1,0,1,1.006v0a1,1,0,0,0-1-1Z" transform="translate(-165.419 -183.257)" fill="#fff"/>
              <path id="Path_2804" data-name="Path 2804" d="M182.526,197.3h-2.578a.2.2,0,0,0-.2.2v.016a.2.2,0,0,0,.2.2h2.58a.2.2,0,0,0,.2-.2h0V197.5a.2.2,0,0,0-.2-.2Z" transform="translate(-165.604 -190.497)" fill="#fff"/>
              <path id="Path_2805" data-name="Path 2805" d="M198.6,193.1H176.691a5.671,5.671,0,0,0-5.677,5.666v21.916a5.671,5.671,0,0,0,5.673,5.671H198.6a5.673,5.673,0,0,0,5.673-5.671h0V198.77A5.672,5.672,0,0,0,198.6,193.1Zm-19.626,22.4v-1.938h.978l-.021-1.436-.675-.089a13.185,13.185,0,0,1,.785-4.087,11.739,11.739,0,0,1,.47-1.114,1.137,1.137,0,0,1,1.028-.646h8.314a1.084,1.084,0,0,1,1.078.988l.295,2.1v5.734l-.551.147c0,.936-.536,1.694-1.193,1.694h-.1a2.035,2.035,0,0,1-.962-.23h0a1.394,1.394,0,0,1-.612-.695l-.87.232-4.853-.4-2.042-.16Zm4.918-12.352,7.324-.368v2.725h-7.234Zm-3.457,12.741,2.113.175a.915.915,0,0,1-.758.5h-.086a1.7,1.7,0,0,1-.81-.194h0A1.118,1.118,0,0,1,180.437,215.891Zm12.137,3.864a1.546,1.546,0,0,1-1.542,1.538H182.26a1.542,1.542,0,0,1-1.54-1.535v-2.716a2.413,2.413,0,0,0,.677.191v1.224h10.5v-17.3H181.4v4.354a1.8,1.8,0,0,0-.679.191v-5.959a1.543,1.543,0,0,1,1.54-1.54h8.772a1.545,1.545,0,0,1,1.542,1.54Zm3.234-6.029-2.609.695V202.762l3.125.811Z" transform="translate(-171.014 -193.099)" fill="#fff"/>
              <path id="Path_2806" data-name="Path 2806" d="M203.545,198.022a10.163,10.163,0,0,1,7.068,2.38,8.016,8.016,0,0,1,2.654,6.3,8.118,8.118,0,0,1-2.654,6.324,10.275,10.275,0,0,1-7.068,2.353H197.47a.691.691,0,0,1-.794-.769V198.791a.69.69,0,0,1,.794-.769Zm-.272,14.036a6.357,6.357,0,0,0,4.364-1.462A4.941,4.941,0,0,0,209.3,206.7a4.851,4.851,0,0,0-1.663-3.869,6.246,6.246,0,0,0-4.364-1.488h-2.7v10.714Z" transform="translate(-155.12 -190.05)" fill="#fff"/>
              <path id="Path_2807" data-name="Path 2807" d="M210.687,215.381a.69.69,0,0,1-.793-.768V198.791a.691.691,0,0,1,.793-.769h2.33a.673.673,0,0,1,.769.769v15.816a.674.674,0,0,1-.769.769Z" transform="translate(-146.934 -190.05)" fill="#fff"/>
              <path id="Path_2808" data-name="Path 2808" d="M233.421,203.5a.5.5,0,0,1-.521.695h-2.832a.76.76,0,0,1-.719-.44,5.011,5.011,0,0,0-4.688-2.529,5.3,5.3,0,0,0-3.971,1.561,6.3,6.3,0,0,0,.026,8.16,5.345,5.345,0,0,0,3.941,1.537,4.59,4.59,0,0,0,4.762-3.273h-4.265a.674.674,0,0,1-.769-.769v-1.517a.674.674,0,0,1,.769-.769h7.87c.5,0,.743.272.743.793a9.356,9.356,0,0,1-2.58,6.617,8.92,8.92,0,0,1-6.571,2.337,9.3,9.3,0,0,1-6.764-2.5,8.791,8.791,0,0,1-2.58-6.571,8.7,8.7,0,0,1,2.554-6.545,9.367,9.367,0,0,1,6.8-2.5C229.154,197.773,232.229,200.049,233.421,203.5Z" transform="translate(-143.603 -190.197)" fill="#fff"/>
              <path id="Path_2809" data-name="Path 2809" d="M230.46,215.381c-.521,0-.8-.248-.8-.768V198.791a.692.692,0,0,1,.8-.769h2.33a.673.673,0,0,1,.769.769v15.816a.674.674,0,0,1-.769.769Z" transform="translate(-134.689 -190.05)" fill="#fff"/>
              <path id="Path_2810" data-name="Path 2810" d="M249.327,198.023a.673.673,0,0,1,.769.769v1.763a.672.672,0,0,1-.769.768h-5.133v13.285a.691.691,0,0,1-.793.769h-2.332a.673.673,0,0,1-.768-.769V201.322h-5.109a.69.69,0,0,1-.794-.768v-1.765a.69.69,0,0,1,.794-.769Z" transform="translate(-131.758 -190.051)" fill="#fff"/>
              <path id="Path_2811" data-name="Path 2811" d="M261.858,214.439c.372.521.147.942-.47.942h-2.9a1.018,1.018,0,0,1-.941-.471l-3.971-5.6h-3.252v5.3a.674.674,0,0,1-.769.769h-2.319a.692.692,0,0,1-.8-.769V198.791a.692.692,0,0,1,.8-.769h6.944a7.966,7.966,0,0,1,5.133,1.538,5.035,5.035,0,0,1,1.911,4.116,5.172,5.172,0,0,1-3.572,4.96Zm-11.536-13.167v4.785h3.3c2.306,0,3.721-.894,3.721-2.382,0-1.511-1.315-2.4-3.522-2.4Z" transform="translate(-124.301 -190.05)" fill="#fff"/>
              <path id="Path_2812" data-name="Path 2812" d="M260.7,213.621a7.853,7.853,0,0,1-2.207-5.854V198.8a.692.692,0,0,1,.8-.769h2.353a.674.674,0,0,1,.769.769v9.028c0,2.753,1.686,4.537,4.241,4.537,2.578,0,4.264-1.785,4.264-4.537v-9.034a.673.673,0,0,1,.768-.769h2.353a.69.69,0,0,1,.793.769v8.976a7.861,7.861,0,0,1-2.206,5.854,9.3,9.3,0,0,1-11.923,0Z" transform="translate(-116.838 -190.05)" fill="#fff"/>
              <path id="Path_2813" data-name="Path 2813" d="M285.513,209.28a.754.754,0,0,1,.743-.546h2.722c.421,0,.693.272.57.695a7.877,7.877,0,0,1-3.075,4.737,9.276,9.276,0,0,1-5.7,1.736,9.39,9.39,0,0,1-6.795-2.5,9.627,9.627,0,0,1,0-13.117,10.375,10.375,0,0,1,12.5-.766,7.751,7.751,0,0,1,3.075,4.706.536.536,0,0,1-.57.719H286.25a.762.762,0,0,1-.743-.546,4.644,4.644,0,0,0-4.706-3.172,5.3,5.3,0,0,0-3.971,1.561,5.564,5.564,0,0,0-1.488,4.042,5.694,5.694,0,0,0,1.488,4.094,5.37,5.37,0,0,0,3.971,1.535A4.73,4.73,0,0,0,285.513,209.28Z" transform="translate(-108.844 -190.197)" fill="#fff"/>
              <path id="Path_2814" data-name="Path 2814" d="M285.6,198.791a.69.69,0,0,1,.794-.769h2.332a.672.672,0,0,1,.768.769v7.488l7.292-7.886a1.108,1.108,0,0,1,.844-.371H300.7c.589,0,.745.371.372.844L293.9,206.7l7.886,7.836c.4.423.223.844-.372.844h-3.248a1.168,1.168,0,0,1-.842-.347l-7.838-7.689v7.261a.673.673,0,0,1-.768.769H286.39a.691.691,0,0,1-.794-.769Z" transform="translate(-100.049 -190.05)" fill="#fff"/>
            </g>
          </g>
          <rect id="Rectangle_33" data-name="Rectangle 33" width="303.211" height="6.82" transform="translate(0 92.539)" fill="#0048c8"/>
          <rect id="Rectangle_34" data-name="Rectangle 34" width="6.721" height="95.949" fill="#0048c8"/>
        </g>
        <g id="Group_882" data-name="Group 882" transform="translate(246.426 99.015)">
          <path id="Path_2815" data-name="Path 2815" d="M306.389,235.939A14.462,14.462,0,0,0,291.927,250.4c0,.442.024.881.063,1.313a14.459,14.459,0,0,0,28.8,0c.039-.432.063-.871.063-1.313A14.462,14.462,0,0,0,306.389,235.939Z" transform="translate(-291.927 -235.939)" fill="#002176"/>
          <path id="Path_2816" data-name="Path 2816" d="M304.035,239.741a8.3,8.3,0,0,0-8.306,8.306c0,.254.015.505.036.755a8.3,8.3,0,0,0,16.54,0c.021-.249.036-.5.036-.755A8.306,8.306,0,0,0,304.035,239.741Z" transform="translate(-289.572 -233.584)" fill="#2343ba"/>
          <path id="Path_2817" data-name="Path 2817" d="M302.9,241.576a5.334,5.334,0,0,0-5.334,5.334c0,.164.008.324.023.484a5.333,5.333,0,0,0,10.623,0c.015-.16.023-.321.023-.484A5.334,5.334,0,0,0,302.9,241.576Z" transform="translate(-288.436 -232.448)" fill="#c1e4ff"/>
        </g>
        <g id="Group_883" data-name="Group 883" transform="translate(219.666 99.015)">
          <path id="Path_2818" data-name="Path 2818" d="M289.864,235.939A14.461,14.461,0,0,0,275.4,250.4c0,.442.023.881.062,1.313a14.46,14.46,0,0,0,28.8,0c.039-.432.062-.871.062-1.313A14.461,14.461,0,0,0,289.864,235.939Z" transform="translate(-275.402 -235.939)" fill="#002176"/>
          <path id="Path_2819" data-name="Path 2819" d="M287.51,239.741a8.3,8.3,0,0,0-8.306,8.306c0,.254.013.505.036.755a8.3,8.3,0,0,0,16.538,0c.023-.249.036-.5.036-.755A8.3,8.3,0,0,0,287.51,239.741Z" transform="translate(-273.047 -233.584)" fill="#2343ba"/>
          <path id="Path_2820" data-name="Path 2820" d="M286.373,241.576a5.332,5.332,0,0,0-5.334,5.334c0,.164.008.324.023.484a5.333,5.333,0,0,0,10.623,0c.013-.16.023-.321.023-.484A5.334,5.334,0,0,0,286.373,241.576Z" transform="translate(-271.911 -232.448)" fill="#c1e4ff"/>
        </g>
        <g id="Group_884" data-name="Group 884" transform="translate(101.479 99.015)">
          <path id="Path_2821" data-name="Path 2821" d="M216.879,235.939A14.462,14.462,0,0,0,202.417,250.4c0,.442.023.881.063,1.313a14.459,14.459,0,0,0,28.8,0c.039-.432.062-.871.062-1.313A14.461,14.461,0,0,0,216.879,235.939Z" transform="translate(-202.417 -235.939)" fill="#002176"/>
          <path id="Path_2822" data-name="Path 2822" d="M214.525,239.741a8.3,8.3,0,0,0-8.306,8.306c0,.254.013.505.036.755a8.3,8.3,0,0,0,16.538,0c.023-.249.037-.5.037-.755A8.306,8.306,0,0,0,214.525,239.741Z" transform="translate(-200.062 -233.584)" fill="#2343ba"/>
          <path id="Path_2823" data-name="Path 2823" d="M213.388,241.576a5.334,5.334,0,0,0-5.334,5.334c0,.164.008.324.023.484a5.333,5.333,0,0,0,10.623,0c.015-.16.023-.321.023-.484A5.333,5.333,0,0,0,213.388,241.576Z" transform="translate(-198.926 -232.448)" fill="#c1e4ff"/>
        </g>
        <g id="Group_885" data-name="Group 885" transform="translate(74.72 99.015)">
          <path id="Path_2824" data-name="Path 2824" d="M200.353,235.939A14.461,14.461,0,0,0,185.892,250.4c0,.442.023.881.062,1.313a14.46,14.46,0,0,0,28.8,0c.039-.432.062-.871.062-1.313A14.461,14.461,0,0,0,200.353,235.939Z" transform="translate(-185.892 -235.939)" fill="#002176"/>
          <path id="Path_2825" data-name="Path 2825" d="M198,239.741a8.3,8.3,0,0,0-8.3,8.306c0,.254.013.505.036.755a8.3,8.3,0,0,0,16.538,0c.023-.249.036-.5.036-.755A8.3,8.3,0,0,0,198,239.741Z" transform="translate(-183.537 -233.584)" fill="#2343ba"/>
          <path id="Path_2826" data-name="Path 2826" d="M196.862,241.576a5.334,5.334,0,0,0-5.334,5.334c0,.164.01.324.024.484a5.333,5.333,0,0,0,10.621,0c.015-.16.024-.321.024-.484A5.334,5.334,0,0,0,196.862,241.576Z" transform="translate(-182.401 -232.448)" fill="#c1e4ff"/>
        </g>
        <g id="Group_886" data-name="Group 886" transform="translate(45.985 99.015)">
          <path id="Path_2827" data-name="Path 2827" d="M182.609,235.939A14.462,14.462,0,0,0,168.147,250.4c0,.442.023.881.062,1.313a14.46,14.46,0,0,0,28.8,0c.039-.432.062-.871.062-1.313A14.461,14.461,0,0,0,182.609,235.939Z" transform="translate(-168.147 -235.939)" fill="#002176"/>
          <path id="Path_2828" data-name="Path 2828" d="M180.255,239.741a8.3,8.3,0,0,0-8.306,8.306c0,.254.013.505.036.755a8.3,8.3,0,0,0,16.538,0c.023-.249.036-.5.036-.755A8.3,8.3,0,0,0,180.255,239.741Z" transform="translate(-165.792 -233.584)" fill="#2343ba"/>
          <path id="Path_2829" data-name="Path 2829" d="M179.118,241.576a5.332,5.332,0,0,0-5.334,5.334c0,.164.008.324.023.484a5.333,5.333,0,0,0,10.623,0c.015-.16.023-.321.023-.484A5.333,5.333,0,0,0,179.118,241.576Z" transform="translate(-164.656 -232.448)" fill="#c1e4ff"/>
        </g>
        <g id="Group_887" data-name="Group 887" transform="translate(19.225 99.015)">
          <path id="Path_2830" data-name="Path 2830" d="M166.083,235.939A14.461,14.461,0,0,0,151.622,250.4c0,.442.023.881.062,1.313a14.46,14.46,0,0,0,28.8,0c.039-.432.062-.871.062-1.313A14.461,14.461,0,0,0,166.083,235.939Z" transform="translate(-151.622 -235.939)" fill="#002176"/>
          <path id="Path_2831" data-name="Path 2831" d="M163.728,239.741a8.3,8.3,0,0,0-8.3,8.306c0,.254.013.505.036.755a8.3,8.3,0,0,0,16.538,0c.023-.249.036-.5.036-.755A8.3,8.3,0,0,0,163.728,239.741Z" transform="translate(-149.267 -233.584)" fill="#2343ba"/>
          <path id="Path_2832" data-name="Path 2832" d="M162.592,241.576a5.334,5.334,0,0,0-5.334,5.334c0,.164.01.324.024.484a5.332,5.332,0,0,0,10.621,0c.015-.16.023-.321.023-.484A5.332,5.332,0,0,0,162.592,241.576Z" transform="translate(-148.131 -232.448)" fill="#c1e4ff"/>
        </g>
        <rect id="Rectangle_35" data-name="Rectangle 35" width="83.639" height="21.734" transform="translate(132.465 100.048)" fill="#002176"/>
        <rect id="Rectangle_36" data-name="Rectangle 36" width="23.048" height="23.048" transform="translate(280.163 99.358)" fill="#002176"/>
        <rect id="Rectangle_37" data-name="Rectangle 37" width="3.361" height="22.423" transform="translate(0 99.358)" fill="#002176"/>
        <g id="Group_888" data-name="Group 888" transform="translate(379.572 46.793)">
          <rect id="Rectangle_38" data-name="Rectangle 38" width="1.911" height="22.11" rx="0.539" transform="translate(0 5.808)" fill="#002176"/>
          <path id="Path_2833" data-name="Path 2833" d="M374.923,235.61h0a.479.479,0,0,1-.478-.478V204.168a.48.48,0,0,1,.478-.478h0a.48.48,0,0,1,.478.478v30.965A.479.479,0,0,1,374.923,235.61Z" transform="translate(-373.967 -203.69)" fill="#002176"/>
        </g>
      </g>
      <ellipse id="Ellipse_41" data-name="Ellipse 41" cx="13.735" cy="1.603" rx="13.735" ry="1.603" transform="translate(161.545 329.82)" fill="#f6f9fe"/>
      <g id="Group_897" data-name="Group 897" transform="translate(164.925 293.839)">
        <g id="Group_892" data-name="Group 892">
          <g id="Group_890" data-name="Group 890">
            <path id="Path_2834" data-name="Path 2834" d="M168.706,242.282c-4.592,4.74-8.846,16.768-5.954,27.942l.337,5.661a24.331,24.331,0,0,1-4.826-3.7c-.478-.452-.965-.981-1.456-1.537a23.673,23.673,0,0,1-6.238-17.286c.389-8.142,1.545-12.885,7.765-18.987s11.81-4.3,13.165-2.482S173.323,237.511,168.706,242.282Z" transform="translate(-150.537 -230.156)" fill="#5f6d81"/>
          </g>
          <g id="Group_891" data-name="Group 891" transform="translate(4.683 1.904)">
            <path id="Path_2835" data-name="Path 2835" d="M167.171,231.561a.453.453,0,0,1-.2.609c-4.218,2.22-9.564,7.82-11.862,16.958-1.694,6.775-.387,18.292,1.359,22.326-.478-.452-.965-.981-1.456-1.537-1.48-5.183-2.3-14.838-.755-21.011,2.346-9.408,7.907-15.22,12.3-17.515A.448.448,0,0,1,167.171,231.561Z" transform="translate(-153.429 -231.331)" fill="#fff"/>
          </g>
        </g>
        <g id="Group_893" data-name="Group 893" transform="translate(8.235 4.882)">
          <path id="Path_2836" data-name="Path 2836" d="M188.049,246.921c-4.139,3.595-6.107,5.475-5.833,8.986s3.425,7.729,3.6,11.758c.149,4.058-2.542,7.966-7.366,9.776-4.49,1.72-9.988.944-13.855-.019-.3-.073-.606-.17-.907-.241-.138-.037-.275-.074-.413-.113a8.814,8.814,0,0,1-5.587-4.761c-3.229-6.952-2.44-12.8.761-12.981,3.731-.219,4-2.967,2.214-8.728s2.364-9.491,7.133-8.79c4.743.7,7.075-.554,9.8-3.506,2.7-2.949,8.914-7.213,13.766-3.966C196.235,237.555,192.214,243.321,188.049,246.921Z" transform="translate(-155.622 -233.171)" fill="#b0b9c7"/>
        </g>
        <g id="Group_894" data-name="Group 894" transform="translate(16.3 8.475)">
          <path id="Path_2837" data-name="Path 2837" d="M184.3,235.633a.452.452,0,0,1-.2.609c-7.217,3.473-21.38,22.642-22.59,39.8-.3-.073-.606-.17-.907-.241,1.362-17.447,15.738-36.853,23.11-40.372A.434.434,0,0,1,184.3,235.633Z" transform="translate(-160.603 -235.389)" fill="#fff"/>
        </g>
        <g id="Group_895" data-name="Group 895" transform="translate(17.631 18.554)">
          <path id="Path_2838" data-name="Path 2838" d="M165.855,254.372a.451.451,0,0,1-.463-.266,75.284,75.284,0,0,1-3.956-11.946.448.448,0,1,1,.874-.2,74.336,74.336,0,0,0,3.906,11.782.45.45,0,0,1-.232.591A.468.468,0,0,1,165.855,254.372Z" transform="translate(-161.425 -241.613)" fill="#fff"/>
        </g>
        <g id="Group_896" data-name="Group 896" transform="translate(17.693 37.579)">
          <path id="Path_2839" data-name="Path 2839" d="M161.963,257.3a.448.448,0,0,1-.277-.832,23.438,23.438,0,0,1,15.667-2.754.449.449,0,0,1-.193.878,22.952,22.952,0,0,0-15.021,2.651A.446.446,0,0,1,161.963,257.3Z" transform="translate(-161.463 -253.362)" fill="#fff"/>
        </g>
      </g>
    </g>
  </g>
</svg>
