<svg xmlns="http://www.w3.org/2000/svg" width="381.453" height="392.091" viewBox="0 0 381.453 392.091">
  <g id="Group_1221" data-name="Group 1221" transform="translate(-492.547 -3551)">
    <circle id="Ellipse_31" data-name="Ellipse 31" cx="190.727" cy="190.727" r="190.727" transform="translate(492.547 3551)" fill="#f6f7f9"/>
    <g id="Group_911" data-name="Group 911" transform="translate(345.671 3152.825)">
      <path id="Path_2851" data-name="Path 2851" d="M389.185,656.658c0,11.912-8.41,21.66-18.7,21.66H259.274c-10.285,0-18.7-9.748-18.7-21.66V428.224c0-11.912,8.416-21.658,18.7-21.658H370.489c10.285,0,18.7,9.746,18.7,21.658Z" transform="translate(0 0)" fill="#0028b5"/>
      <rect id="Rectangle_39" data-name="Rectangle 39" width="124.049" height="215.653" transform="translate(252.853 434.615)" fill="#fff"/>
      <g id="Group_904" data-name="Group 904" transform="translate(295.613 412.776)">
        <path id="Path_2852" data-name="Path 2852" d="M302.035,412.651a3.2,3.2,0,0,1-2.946,3.408H264.473a3.2,3.2,0,0,1-2.946-3.408h0a3.205,3.205,0,0,1,2.946-3.413h34.616a3.2,3.2,0,0,1,2.946,3.413Z" transform="translate(-260.603 -408.311)" fill="#0045e0"/>
        <path id="Path_2853" data-name="Path 2853" d="M299.667,417.566H265.051a4.366,4.366,0,0,1,0-8.675h34.616a4.365,4.365,0,0,1,0,8.675Zm-34.616-6.821a2.537,2.537,0,0,0,0,4.968h34.616a2.537,2.537,0,0,0,0-4.968Z" transform="translate(-261.181 -408.891)" fill="#0045e0"/>
      </g>
      <g id="Group_906" data-name="Group 906" transform="translate(262.456 606.729)">
        <rect id="Rectangle_40" data-name="Rectangle 40" width="104.843" height="26.594" rx="2.6" fill="#ffc000"/>
        <g id="Group_905" data-name="Group 905" transform="translate(20.388 9.857)">
          <path id="Path_2854" data-name="Path 2854" d="M256.7,491.847a.263.263,0,0,1-.3-.294v-6c0-.2.1-.291.3-.291h2.465a2.929,2.929,0,0,1,1.96.638,2.112,2.112,0,0,1,.753,1.677,2.166,2.166,0,0,1-.772,1.731,2.944,2.944,0,0,1-2.006.66H257.88v1.589a.256.256,0,0,1-.294.294Zm1.178-3.106h1.148a1.232,1.232,0,0,0,1.373-1.167c0-.641-.556-1.084-1.373-1.084H257.88Z" transform="translate(-256.4 -485.106)" fill="#0028b5"/>
          <path id="Path_2855" data-name="Path 2855" d="M259.7,491.116a3.568,3.568,0,0,1,0-4.952,3.961,3.961,0,0,1,5.168,0,3.541,3.541,0,0,1,0,4.952,3.953,3.953,0,0,1-5.168,0Zm2.588-.318a2,2,0,0,0,1.506-.6,2.358,2.358,0,0,0,0-3.109,2.189,2.189,0,0,0-3.013,0,2.366,2.366,0,0,0,0,3.109A2,2,0,0,0,262.284,490.8Z" transform="translate(-252.562 -485.194)" fill="#0028b5"/>
          <path id="Path_2856" data-name="Path 2856" d="M261.714,490.1c-.04-.158.045-.262.224-.262h.988a.269.269,0,0,1,.272.2,1.548,1.548,0,0,0,1.546.857c.686,0,1.138-.294,1.127-.735,0-.6-.732-.753-1.552-.887-1.1-.179-2.361-.489-2.39-2.032a1.721,1.721,0,0,1,.7-1.477,3.009,3.009,0,0,1,1.91-.566,3.344,3.344,0,0,1,1.864.492,2.1,2.1,0,0,1,.959,1.317c.029.179-.048.262-.224.262h-1.007a.288.288,0,0,1-.283-.195,1.147,1.147,0,0,0-1.213-.708c-.678,0-1.122.3-1.111.783,0,.753.988.8,1.947,1.015a6.976,6.976,0,0,1,.943.283,1.612,1.612,0,0,1,1.034,1.592,1.74,1.74,0,0,1-.734,1.488,3.27,3.27,0,0,1-1.976.556C263.106,492.084,261.976,491.339,261.714,490.1Z" transform="translate(-247.537 -485.201)" fill="#0028b5"/>
          <path id="Path_2857" data-name="Path 2857" d="M269.793,485.258a.256.256,0,0,1,.291.291v.668a.256.256,0,0,1-.291.291h-1.95v5.045a.263.263,0,0,1-.3.294h-.884a.255.255,0,0,1-.291-.294v-5.045h-1.942a.261.261,0,0,1-.3-.291v-.668a.261.261,0,0,1,.3-.291Z" transform="translate(-243.491 -485.106)" fill="#0028b5"/>
          <path id="Path_2858" data-name="Path 2858" d="M268.522,491.116a3.568,3.568,0,0,1,0-4.952,3.961,3.961,0,0,1,5.168,0,3.541,3.541,0,0,1,0,4.952,3.953,3.953,0,0,1-5.168,0Zm2.588-.318a2,2,0,0,0,1.506-.6,2.358,2.358,0,0,0,0-3.109,2.189,2.189,0,0,0-3.013,0,2.366,2.366,0,0,0,0,3.109A2,2,0,0,0,271.11,490.8Z" transform="translate(-237.816 -485.194)" fill="#0028b5"/>
          <path id="Path_2859" data-name="Path 2859" d="M276.465,491.489c.142.2.059.358-.176.358h-1.1a.39.39,0,0,1-.358-.179l-1.5-2.129h-1.234v2.014a.256.256,0,0,1-.294.294h-.884a.263.263,0,0,1-.3-.294v-6c0-.2.1-.291.3-.291h2.636a3.011,3.011,0,0,1,1.947.582,1.9,1.9,0,0,1,.726,1.562,1.964,1.964,0,0,1-1.354,1.883Zm-4.375-5v1.819h1.253c.876,0,1.41-.339,1.41-.905s-.5-.913-1.335-.913Z" transform="translate(-232.656 -485.106)" fill="#0028b5"/>
          <path id="Path_2860" data-name="Path 2860" d="M275.75,485.258a3.854,3.854,0,0,1,2.684.9,3.043,3.043,0,0,1,1.007,2.39,3.082,3.082,0,0,1-1.007,2.4,3.9,3.9,0,0,1-2.684.895h-2.3c-.2,0-.3-.093-.3-.294v-6c0-.2.1-.291.3-.291Zm-.1,5.328a2.422,2.422,0,0,0,1.659-.555,1.882,1.882,0,0,0,.628-1.48,1.849,1.849,0,0,0-.628-1.469,2.387,2.387,0,0,0-1.659-.563h-1.026v4.068Z" transform="translate(-228.429 -485.106)" fill="#0028b5"/>
          <path id="Path_2861" data-name="Path 2861" d="M280.952,486.19a.256.256,0,0,1-.294.291h-3.274v1.5h2.831a.255.255,0,0,1,.294.291v.633a.255.255,0,0,1-.294.291h-2.831v1.432h3.274a.255.255,0,0,1,.294.291v.638a.256.256,0,0,1-.294.294h-4.452a.263.263,0,0,1-.3-.294v-6c0-.2.1-.291.3-.291h4.452a.255.255,0,0,1,.294.291Z" transform="translate(-223.813 -485.106)" fill="#0028b5"/>
          <path id="Path_2862" data-name="Path 2862" d="M284.024,491.489c.142.2.059.358-.176.358h-1.1a.387.387,0,0,1-.358-.179l-1.506-2.129h-1.234v2.014a.255.255,0,0,1-.291.294h-.884a.263.263,0,0,1-.3-.294v-6c0-.2.1-.291.3-.291h2.633a3.019,3.019,0,0,1,1.95.582,1.908,1.908,0,0,1,.724,1.562,1.961,1.961,0,0,1-1.354,1.883Zm-4.378-5v1.819H280.9c.876,0,1.41-.339,1.41-.905s-.5-.913-1.335-.913Z" transform="translate(-220.026 -485.106)" fill="#0028b5"/>
        </g>
      </g>
      <g id="Group_910" data-name="Group 910" transform="translate(336.414 613.561)">
        <g id="Group_909" data-name="Group 909">
          <g id="Group_907" data-name="Group 907">
            <path id="Path_2863" data-name="Path 2863" d="M309.563,570.889q-6.446-14.415-12.9-28.837c-4.014-8.979-7.777-17.977-11.356-27.055l-.043-.072s6.162,38.326,6.995,42.626c2.075,10.643,13.148,18.794,20.272,25.966,1.365,1.373,21.449,20.266,21.449,20.266l-.005,0c-1.33-1.41-2.73-3.029-4.316-4.995C322.57,590.012,314.243,581.348,309.563,570.889Z" transform="translate(-261.739 -432.514)" fill="#f4aa6e"/>
            <path id="Path_2864" data-name="Path 2864" d="M418.121,630.192a240.753,240.753,0,0,1-63.272,30.581,45.842,45.842,0,0,1-6.143-5.422v-.027c-1.335-1.389-2.751-3.018-4.327-4.994-7.1-8.76-15.411-17.414-20.111-27.883-4.273-9.615-8.6-19.23-12.873-28.845-4.033-8.974-7.8-17.975-11.378-27.055,0-.027-.027-.027-.027-.054q-4.888-12.459-9.4-25.213-6.41-18.268-12.82-36.51c-1.843-5.235-3.258-23.93,6.757-20.218a9.4,9.4,0,0,1,1.522.694,10.745,10.745,0,0,1,3.873,4.353c.16.294.294.561.454.828,1.2,2.243,2.19,4.7,3.1,6.49q9.735,19.03,19.47,38.032c1.6,3.125,3.525,9.214,7,10.763,3.846,1.709,5.475-1.415,8.52-2.644,4.861-3.525,7.879.294,11.778,2.671,4.46,2.751,6.837-.454,10.5-2.163,6.063-4.727,7.959,2.7,12.82,4.086,5.074,1.416,8.466-4.113,13.488.962,4.514,4.54,7.692,1.6,12.686,2.724,10.71,2.377,17.921,26.254,22.088,35.041C417.427,598.2,409.949,619.8,418.121,630.192Z" transform="translate(-276.457 -484.069)" fill="#f7be89"/>
          </g>
          <g id="Group_908" data-name="Group 908" transform="translate(2.05 0.487)">
            <path id="Path_2865" data-name="Path 2865" d="M277.225,487.485s2,7.393,4.642,7.8,8.621-2.313,8.6-2.358c-1.592-2.954-2.909-6.845-5.686-8.1a13.34,13.34,0,0,0-1.522-.574C280.978,484.7,278.269,485.608,277.225,487.485Z" transform="translate(-277.225 -484.251)" fill="#ffd7b6"/>
          </g>
        </g>
      </g>
      <rect id="Rectangle_41" data-name="Rectangle 41" width="107.286" height="23.526" transform="translate(261.235 446.31)" fill="#b0b9c7"/>
      <rect id="Rectangle_42" data-name="Rectangle 42" width="67.801" height="23.526" transform="translate(261.235 477.507)" fill="#b0b9c7"/>
      <rect id="Rectangle_43" data-name="Rectangle 43" width="90.472" height="14.064" transform="translate(261.235 508.704)" fill="#b0b9c7"/>
      <rect id="Rectangle_44" data-name="Rectangle 44" width="107.286" height="14.064" transform="translate(261.235 539.39)" fill="#0045e0"/>
      <rect id="Rectangle_45" data-name="Rectangle 45" width="107.286" height="35.544" transform="translate(261.235 559.592)" fill="#b0b9c7"/>
    </g>
  </g>
</svg>
